<?xml version="1.0" encoding="utf-8"?>
<!-- Generator: Adobe Illustrator 21.0.2, SVG Export Plug-In . SVG Version: 6.00 Build 0)  -->
<svg version="1.1" id="Layer_1" xmlns="http://www.w3.org/2000/svg" xmlns:xlink="http://www.w3.org/1999/xlink" x="0px" y="0px"
	 width="14px" height="14px" viewBox="0 0 14 14" style="enable-background:new 0 0 14 14;" xml:space="preserve">
<style type="text/css">
	.st0{fill:#7AC943;}
</style>
<path class="st0" d="M10.3,5.1l-3.4,5.1c0,0,0,0,0,0c0,0,0,0,0,0.1c0,0,0,0-0.1,0.1c0,0,0,0,0,0c-0.1,0-0.1,0.1-0.2,0.1
	c0,0,0,0-0.1,0c0,0-0.1,0-0.1,0c0,0-0.1,0-0.1,0c0,0-0.1,0-0.1-0.1c0,0,0,0,0,0c0,0,0,0,0,0c0,0,0,0,0,0c0,0,0,0,0,0c0,0,0,0,0,0
	L4,8.5C3.9,8.4,3.9,8.3,3.8,8.1c0-0.2,0-0.3,0.2-0.5s0.3-0.2,0.4-0.2c0.2,0,0.3,0.1,0.5,0.2l1.4,1.3l3-4.5c0.1-0.1,0.2-0.2,0.4-0.3
	s0.3,0,0.5,0.1c0.1,0.1,0.2,0.2,0.3,0.4S10.3,4.9,10.3,5.1z M11.9,2.1C10.6,0.7,8.9,0,7,0S3.4,0.7,2.1,2.1S0,5.1,0,7
	s0.7,3.6,2.1,4.9S5.1,14,7,14s3.6-0.7,4.9-2.1S14,8.9,14,7S13.3,3.4,11.9,2.1z"/>
</svg>
