<?xml version="1.0" encoding="utf-8"?>
<!-- Generator: Adobe Illustrator 21.0.2, SVG Export Plug-In . SVG Version: 6.00 Build 0)  -->
<svg version="1.1" id="Layer_1" xmlns="http://www.w3.org/2000/svg" xmlns:xlink="http://www.w3.org/1999/xlink" x="0px" y="0px"
	 width="14px" height="14px" viewBox="0 0 14 14" style="enable-background:new 0 0 14 14;" xml:space="preserve">
<style type="text/css">
	.st0{fill:#FF1D25;}
</style>
<path class="st0" d="M10.2,4.4L7.6,7l2.3,2.6c0.2,0.2,0.2,0.4,0,0.7c-0.2,0.2-0.4,0.2-0.7,0L7,7.7l-2.6,2.6c-0.2,0.2-0.4,0.2-0.6,0
	c-0.1-0.1-0.1-0.2-0.1-0.3c0-0.1,0-0.2,0.1-0.3L6.4,7L4.1,4.4C3.8,4.2,3.8,4,4.1,3.7c0.2-0.2,0.4-0.2,0.7,0L7,6.3l2.6-2.6
	c0.2-0.2,0.4-0.2,0.7,0C10.5,4,10.5,4.2,10.2,4.4z M11.9,2.1C10.6,0.7,8.9,0,7,0S3.4,0.7,2.1,2.1S0,5.1,0,7s0.7,3.6,2.1,4.9
	C3.4,13.3,5.1,14,7,14s3.6-0.7,4.9-2.1c1.4-1.4,2.1-3,2.1-4.9S13.3,3.4,11.9,2.1z"/>
</svg>
