<?xml version="1.0" encoding="utf-8"?>
<!-- Generator: Adobe Illustrator 21.0.2, SVG Export Plug-In . SVG Version: 6.00 Build 0)  -->
<svg version="1.1" id="Layer_1" xmlns="http://www.w3.org/2000/svg" xmlns:xlink="http://www.w3.org/1999/xlink" x="0px" y="0px"
	 width="19.7px" height="17.3px" viewBox="0 0 19.7 17.3" style="enable-background:new 0 0 19.7 17.3;" xml:space="preserve">
<style type="text/css">
	.st0{fill:#808080;}
</style>
<title>cart</title>
<g id="Layer_2">
	<g id="Layer_1-2">
		<g>
			<path class="st0" d="M16.3,11.8h-10c-0.3,0-0.5-0.2-0.5-0.4L4.7,1H0.5C0.2,1,0,0.8,0,0.5S0.2,0,0.5,0h4.7c0.3,0,0.5,0.2,0.5,0.4
				l0.4,4.3h12.4c0.1,0,0.4,0,0.6,0.2c0.3,0.2,0.5,0.4,0.6,0.7c0.1,0.3,0,0.6-0.1,0.9l-2.8,5.1C16.7,11.7,16.5,11.8,16.3,11.8z
				 M6.8,10.8H16l2.7-4.9c0,0-0.1-0.1-0.1-0.1c0,0-0.1,0-0.1,0l-12.3,0L6.8,10.8z"/>
		</g>
		<g>
			<circle class="st0" cx="7.6" cy="15.8" r="1.5"/>
		</g>
		<g>
			<circle class="st0" cx="13.2" cy="15.8" r="1.5"/>
		</g>
	</g>
</g>
</svg>
