<?xml version="1.0" encoding="utf-8"?>
<!-- Generator: Adobe Illustrator 21.0.2, SVG Export Plug-In . SVG Version: 6.00 Build 0)  -->
<svg version="1.1" id="Layer_1" xmlns="http://www.w3.org/2000/svg" xmlns:xlink="http://www.w3.org/1999/xlink" x="0px" y="0px"
	 width="12px" height="12px" viewBox="0 0 12 12" style="enable-background:new 0 0 12 12;" xml:space="preserve">
<style type="text/css">
	.st0{fill:#FFFFFF;}
</style>
<title>delete</title>
<g id="Layer_2">
	<g id="Layer_1-2">
		<g>
			<path class="st0" d="M1,12c-0.3,0-0.5-0.1-0.7-0.3c-0.4-0.4-0.4-1,0-1.4l10-10c0.4-0.4,1-0.4,1.4,0s0.4,1,0,1.4l-10,10
				C1.5,11.9,1.3,12,1,12z"/>
		</g>
		<g>
			<path class="st0" d="M11,12c-0.3,0-0.5-0.1-0.7-0.3l-10-10c-0.4-0.4-0.4-1,0-1.4s1-0.4,1.4,0l10,10c0.4,0.4,0.4,1,0,1.4
				C11.5,11.9,11.3,12,11,12z"/>
		</g>
	</g>
</g>
</svg>
