<?xml version="1.0" encoding="utf-8"?>
<!-- Generator: Adobe Illustrator 21.0.2, SVG Export Plug-In . SVG Version: 6.00 Build 0)  -->
<svg version="1.1" id="Layer_1" xmlns="http://www.w3.org/2000/svg" xmlns:xlink="http://www.w3.org/1999/xlink" x="0px" y="0px"
	 width="28px" height="28px" viewBox="0 0 28 28" style="enable-background:new 0 0 28 28;" xml:space="preserve">
<style type="text/css">
	.st0{fill:#FF795F;}
	.st1{fill:#FFFFFF;}
</style>
<title>delete</title>
<g id="Layer_2">
	<g id="Layer_1-2">
		<g>
			<path class="st0" d="M14,28L14,28C6.3,28,0,21.7,0,14l0,0C0,6.3,6.3,0,14,0l0,0c7.7,0,14,6.3,14,14l0,0l0,0
				C28,21.7,21.7,28,14,28z"/>
		</g>
		<g>
			<path class="st1" d="M9,19.5c-0.1,0-0.3,0-0.4-0.1c-0.2-0.2-0.2-0.5,0-0.7l10-10c0.2-0.2,0.5-0.2,0.7,0s0.2,0.5,0,0.7l-10,10
				C9.3,19.5,9.1,19.5,9,19.5z"/>
		</g>
		<g>
			<path class="st1" d="M19,19.5c-0.1,0-0.3,0-0.4-0.1l-10-10c-0.2-0.2-0.2-0.5,0-0.7s0.5-0.2,0.7,0l10,10c0.2,0.2,0.2,0.5,0,0.7
				C19.3,19.5,19.1,19.5,19,19.5z"/>
		</g>
	</g>
</g>
</svg>
