<?xml version="1.0" encoding="utf-8"?>
<!-- Generator: Adobe Illustrator 21.0.2, SVG Export Plug-In . SVG Version: 6.00 Build 0)  -->
<svg version="1.1" id="Layer_1" xmlns="http://www.w3.org/2000/svg" xmlns:xlink="http://www.w3.org/1999/xlink" x="0px" y="0px"
	 width="12px" height="12px" viewBox="0 0 12 12" style="enable-background:new 0 0 12 12;" xml:space="preserve">
<style type="text/css">
	.st0{fill:#FF795F;}
	.st1{fill:#FFFFFF;}
</style>
<g>
	<g>
		<path class="st0" d="M6,12L6,12c-3.3,0-6-2.7-6-6l0,0c0-3.3,2.7-6,6-6l0,0c3.3,0,6,2.7,6,6l0,0C12,9.3,9.3,12,6,12z"/>
	</g>
	<g>
		<g>
			<path class="st1" d="M3.9,8.6c-0.1,0-0.3,0-0.4-0.1C3.3,8.3,3.3,8,3.5,7.8l4.2-4.2c0.2-0.2,0.5-0.2,0.7,0s0.2,0.5,0,0.7L4.3,8.5
				C4.2,8.6,4,8.6,3.9,8.6z"/>
		</g>
		<g>
			<path class="st1" d="M8.1,8.6c-0.1,0-0.3,0-0.4-0.1L3.5,4.3c-0.2-0.2-0.2-0.5,0-0.7s0.5-0.2,0.7,0l4.2,4.2c0.2,0.2,0.2,0.5,0,0.7
				C8.4,8.6,8.2,8.6,8.1,8.6z"/>
		</g>
	</g>
</g>
</svg>
