<svg xmlns="http://www.w3.org/2000/svg" width="24" height="24" viewBox="0 0 24 24"><defs><style>.cls-1{fill:#fff;}</style></defs><title>facebook</title><g id="Layer_2" data-name="Layer 2"><g id="Layer_1-2" data-name="Layer 1"><path class="cls-1" d="M17.94,0H6.06A6.06,6.06,0,0,0,0,6.06V17.95A6.05,6.05,0,0,0,6.06,24h4.19a1,1,0,0,0,1-1V14.44H9V10.72h2.22V8.5a5.22,5.22,0,0,1,1.11-3.62,4.81,4.81,0,0,1,3.71-1.23h3V7.38H17.19q-1,0-1.23.32a2,2,0,0,0-.25,1.15v1.87h3.35l-.37,3.72h-3V23a1,1,0,0,0,1,1h1.26A6.05,6.05,0,0,0,24,17.95V6.06A6.06,6.06,0,0,0,17.94,0Z"/></g></g></svg>