<?xml version="1.0" encoding="utf-8"?>
<!-- Generator: Adobe Illustrator 21.0.2, SVG Export Plug-In . SVG Version: 6.00 Build 0)  -->
<svg version="1.1" id="Layer_1" xmlns="http://www.w3.org/2000/svg" xmlns:xlink="http://www.w3.org/1999/xlink" x="0px" y="0px"
	 width="18.8px" height="18px" viewBox="0 0 18.8 18" style="enable-background:new 0 0 18.8 18;" xml:space="preserve">
<style type="text/css">
	.st0{fill:#F8F8F8;}
	.st1{fill:#CCCCCC;}
</style>
<title>fav</title>
<g>
	<path class="st0" d="M14.1,16.8c-0.1,0-0.2,0-0.2-0.1l-4-2.1c-0.1-0.1-0.3-0.1-0.5-0.1c-0.2,0-0.3,0-0.5,0.1l-4,2.1
		c-0.1,0-0.2,0.1-0.2,0.1c-0.1,0-0.3-0.1-0.4-0.2c-0.1-0.1-0.1-0.3-0.1-0.4L5,11.7C5,11.4,4.9,11,4.7,10.8L1.5,7.7
		C1.3,7.5,1.3,7.3,1.3,7.1c0.1-0.2,0.2-0.3,0.4-0.3l4.5-0.6c0.3,0,0.6-0.3,0.8-0.6l2-4.1c0.1-0.2,0.3-0.3,0.5-0.3s0.4,0.1,0.5,0.3
		l2,4.1c0.1,0.3,0.4,0.5,0.8,0.6l4.5,0.6c0.2,0,0.3,0.2,0.4,0.3s0,0.4-0.1,0.5l-3.2,3.2c-0.2,0.2-0.3,0.6-0.3,0.9l0.8,4.5
		c0,0.2,0,0.3-0.1,0.4C14.4,16.7,14.3,16.8,14.1,16.8z"/>
	<path class="st1" d="M9.4,1.5c0,0,0.2,0,0.2,0.1l2,4.1c0.2,0.4,0.5,0.6,0.9,0.7L17.1,7c0.1,0,0.2,0.1,0.2,0.2c0,0,0,0.2-0.1,0.3
		L14,10.6c-0.3,0.3-0.4,0.7-0.4,1.1l0.8,4.5c0,0.1,0,0.1-0.1,0.2c-0.1,0.1-0.1,0.1-0.2,0.1c0,0-0.1,0-0.1,0l-4-2.1
		c-0.2-0.1-0.4-0.1-0.6-0.1c-0.2,0-0.4,0.1-0.6,0.1l-4,2.1c0,0-0.1,0-0.1,0c-0.1,0-0.2,0-0.2-0.1c0-0.1-0.1-0.1-0.1-0.2l0.8-4.5
		c0.1-0.4-0.1-0.8-0.4-1.1L1.6,7.5C1.5,7.4,1.5,7.3,1.6,7.2c0,0,0.1-0.2,0.2-0.2l4.5-0.6C6.7,6.3,7,6.1,7.2,5.7l2-4.1
		C9.3,1.5,9.4,1.5,9.4,1.5 M9.4,1C9.1,1,8.9,1.1,8.7,1.4l-2,4.1C6.6,5.7,6.4,5.9,6.2,5.9L1.7,6.5C1.1,6.6,0.8,7.4,1.3,7.8L4.5,11
		c0.2,0.2,0.3,0.4,0.2,0.7L4,16.1C3.9,16.6,4.3,17,4.7,17c0.1,0,0.2,0,0.4-0.1l4-2.1c0.1-0.1,0.2-0.1,0.4-0.1s0.2,0,0.4,0.1l4,2.1
		C13.9,17,14,17,14.1,17c0.4,0,0.8-0.4,0.7-0.9l-0.8-4.5c0-0.2,0-0.5,0.2-0.7l3.2-3.2c0.5-0.4,0.2-1.2-0.4-1.3l-4.5-0.6
		c-0.2,0-0.5-0.2-0.6-0.4l-2-4.1C10,1.1,9.7,1,9.4,1L9.4,1z"/>
</g>
</svg>
