<?xml version="1.0" encoding="utf-8"?>
<!-- Generator: Adobe Illustrator 21.0.2, SVG Export Plug-In . SVG Version: 6.00 Build 0)  -->
<svg version="1.1" id="Layer_1" xmlns="http://www.w3.org/2000/svg" xmlns:xlink="http://www.w3.org/1999/xlink" x="0px" y="0px"
	 width="18.8px" height="18px" viewBox="0 0 18.8 18" style="enable-background:new 0 0 18.8 18;" xml:space="preserve">
<style type="text/css">
	.st0{fill:#CCCCCC;}
</style>
<title>fav</title>
<g id="Layer_2">
	<g id="Layer_1-2">
		<path class="st0" d="M9.4,0C9.1,0,8.8,0.2,8.6,0.5L6.4,5C6.3,5.3,6,5.4,5.8,5.5l-5,0.7C0.3,6.2-0.1,6.6,0,7.1
			c0,0.2,0.1,0.4,0.3,0.6l3.6,3.5c0.2,0.2,0.3,0.5,0.2,0.8l-0.9,5c-0.1,0.5,0.2,0.9,0.7,1c0.2,0,0.4,0,0.6-0.1L9,15.5
			c0.3-0.1,0.5-0.1,0.8,0l4.5,2.4c0.4,0.2,0.9,0.1,1.2-0.3c0.1-0.2,0.1-0.4,0.1-0.6l-0.9-5c0-0.3,0-0.6,0.2-0.8l3.6-3.6
			c0.3-0.3,0.4-0.9,0-1.2c-0.1-0.1-0.3-0.2-0.5-0.3l-5-0.7c-0.3,0-0.5-0.2-0.7-0.5l-2.2-4.5C10,0.2,9.7,0,9.4,0z"/>
	</g>
</g>
</svg>
