<?xml version="1.0" encoding="utf-8"?>
<!-- Generator: Adobe Illustrator 21.0.2, SVG Export Plug-In . SVG Version: 6.00 Build 0)  -->
<svg version="1.1" id="Layer_1" xmlns="http://www.w3.org/2000/svg" xmlns:xlink="http://www.w3.org/1999/xlink" x="0px" y="0px"
	 width="32.1px" height="32px" viewBox="0 0 32.1 32" style="enable-background:new 0 0 32.1 32;" xml:space="preserve">
<style type="text/css">
	.st0{fill:#E6E6E6;}
</style>
<title>grid</title>
<g id="Layer_2">
	<g id="Layer_1-2">
		<path class="st0" d="M18.7,29.3c0,1.5,1.2,2.6,2.7,2.7h8c1.5,0,2.7-1.2,2.7-2.7v-8c0-1.5-1.2-2.7-2.7-2.7h-8
			c-1.5,0-2.7,1.2-2.7,2.7V29.3z M0,29.3c0,0.7,0.3,1.4,0.8,1.9C1.3,31.7,2,32,2.7,32h8c1.5,0,2.7-1.2,2.7-2.7v-8
			c0-1.5-1.2-2.7-2.7-2.7h-8c-0.7,0-1.4,0.3-1.9,0.8C0.3,19.9,0,20.6,0,21.3V29.3z M21.3,13.3h8c1.5,0,2.6-1.2,2.7-2.7v-8
			c0-0.7-0.3-1.4-0.8-1.9C30.7,0.3,30,0,29.3,0h-8c-0.7,0-1.4,0.3-1.9,0.8S18.6,2,18.6,2.7v8C18.7,12.1,19.9,13.3,21.3,13.3
			L21.3,13.3z M2.7,13.3h8c1.5,0,2.7-1.2,2.7-2.7v-8c0-0.7-0.3-1.4-0.8-1.9C12.1,0.3,11.4,0,10.7,0h-8C2,0,1.3,0.3,0.8,0.8
			S0,2,0,2.7v8c0,0.7,0.3,1.4,0.8,1.9C1.3,13.1,2,13.3,2.7,13.3L2.7,13.3z"/>
	</g>
</g>
</svg>
