<svg xmlns="http://www.w3.org/2000/svg" width="24" height="24" viewBox="0 0 24 24"><defs><style>.cls-1{fill:#fff;}</style></defs><title>instagram</title><g id="Layer_2" data-name="Layer 2"><g id="Layer_1-2" data-name="Layer 1"><path class="cls-1" d="M24,17.94A6.06,6.06,0,0,1,17.95,24H6.06A6.06,6.06,0,0,1,0,17.94V6.06A6.06,6.06,0,0,1,6.06,0H17.95A6.06,6.06,0,0,1,24,6.06ZM17.95,2.61H6.06A3.44,3.44,0,0,0,2.61,6.06V17.94a3.45,3.45,0,0,0,3.44,3.44H17.95a3.45,3.45,0,0,0,3.44-3.44V6.06a3.45,3.45,0,0,0-3.44-3.44ZM12,18.18A6.18,6.18,0,1,1,18.18,12,6.19,6.19,0,0,1,12,18.18ZM18.38,7.1a1.46,1.46,0,1,1,1.46-1.46A1.46,1.46,0,0,1,18.38,7.1Zm0,0M12,8.43A3.57,3.57,0,1,0,15.57,12,3.57,3.57,0,0,0,12,8.43Zm0,0,12,9.51"/></g></g></svg>