<?xml version="1.0" encoding="utf-8"?>
<!-- Generator: Adobe Illustrator 21.0.2, SVG Export Plug-In . SVG Version: 6.00 Build 0)  -->
<svg version="1.1" id="Layer_1" xmlns="http://www.w3.org/2000/svg" xmlns:xlink="http://www.w3.org/1999/xlink" x="0px" y="0px"
	 width="32px" height="32px" viewBox="0 0 32 32" style="enable-background:new 0 0 32 32;" xml:space="preserve">
<style type="text/css">
	.st0{fill:#E6E6E6;}
</style>
<title>list</title>
<g id="Layer_2">
	<g id="Layer_1-2">
		<path class="st0" d="M2,0h28c1.1,0,2,0.9,2,2v4c0,1.1-0.9,2-2,2H2C0.9,8,0,7.1,0,6V2C0,0.9,0.9,0,2,0z"/>
		<path class="st0" d="M2,12h28c1.1,0,2,0.9,2,2v4c0,1.1-0.9,2-2,2H2c-1.1,0-2-0.9-2-2v-4C0,12.9,0.9,12,2,12z"/>
		<path class="st0" d="M2,24h28c1.1,0,2,0.9,2,2v4c0,1.1-0.9,2-2,2H2c-1.1,0-2-0.9-2-2v-4C0,24.9,0.9,24,2,24z"/>
	</g>
</g>
</svg>
