<svg xmlns="http://www.w3.org/2000/svg" width="163.54" height="57.64" viewBox="0 0 163.54 57.64"><defs><style>.cls-1{fill:#ff795f;}</style></defs><title>logo</title><g id="Layer_2" data-name="Layer 2"><g id="Layer_1-2" data-name="Layer 1"><path class="cls-1" d="M11.9,38.09a13.2,13.2,0,0,1,2-4.14,11.8,11.8,0,0,1,3.48-3.3,6.64,6.64,0,0,1,4.24-1.09,4.85,4.85,0,0,1,2.71,1.12,3.87,3.87,0,0,1,1.26,2.27l.18-.18,1.6-2.18q.76-1,1.51-.7.6.24.36,1a1.43,1.43,0,0,1-.24.45l-1.13,1.59-1,1.36-.74,1.07q-.45.67-.64,1t-.45.77a5.24,5.24,0,0,0-.36.74l-.23.64a3.51,3.51,0,0,0-.18.71q0,.33-.08.73a2.73,2.73,0,0,0,.35,1.92,1.69,1.69,0,0,0,1.5.74q4,0,14.7-10.86a1.66,1.66,0,0,1,.42-.32.86.86,0,0,1,.38-.11.53.53,0,0,1,.29.08.47.47,0,0,1,.18.21.78.78,0,0,1,.06.32.8.8,0,0,1-.11.38,1.63,1.63,0,0,1-.29.38Q38.88,35.49,37,37.26t-4,3.52a19,19,0,0,1-3.92,2.57,8,8,0,0,1-3.34.82,3.27,3.27,0,0,1-2.87-1.29,4.22,4.22,0,0,1-.67-3.1v-.09A19,19,0,0,1,18.78,43a6.42,6.42,0,0,1-3.34,1.21,3.13,3.13,0,0,1-3.15-1.66A5.39,5.39,0,0,1,11.9,38.09Zm3.66,4.48A5.9,5.9,0,0,0,19,40.78a52.47,52.47,0,0,0,5-5.72,4.88,4.88,0,0,0-.82-2.86,2.67,2.67,0,0,0-2-1.16,4.49,4.49,0,0,0-2.56.64,8.63,8.63,0,0,0-2.28,1.88A13.88,13.88,0,0,0,14.6,36a10.82,10.82,0,0,0-1,2.48,10,10,0,0,0-.27,2A2.15,2.15,0,0,0,13.85,42,2,2,0,0,0,15.56,42.56Z"/><path class="cls-1" d="M44.3,43.68a5.31,5.31,0,0,1-2.68-1.38,6.82,6.82,0,0,1-1.86-2.86A23.5,23.5,0,0,0,37.52,42L36.11,44Q34.8,46,34.07,47l-6.69,9.86a1.41,1.41,0,0,1-1.54.79.68.68,0,0,1-.54-.88l.21-.48L36.1,40.87a47,47,0,0,0,4.3-8.71q.48-1.09,1.21-1,.54.06.54.73a2.21,2.21,0,0,1-.15.61q-1.94,4.14-1.42,4.17.27,0,1.06-.82a38.14,38.14,0,0,1,5.61-4.76q2.92-2,4.79-2a3.51,3.51,0,0,1,3,1.29,4.82,4.82,0,0,1,.57,3.74,12.12,12.12,0,0,1-4,7.49A8.25,8.25,0,0,1,44.3,43.68Zm-1.94-6.59a11.68,11.68,0,0,1-1.18,1.06l.06.06a5.59,5.59,0,0,0,1.39,2.56,3.79,3.79,0,0,0,2,1.35,6.63,6.63,0,0,0,5.78-1.66A10.33,10.33,0,0,0,53.95,34a4.26,4.26,0,0,0-.18-2.51,1.81,1.81,0,0,0-1.85-1q-1.18,0-4.19,2.16A46.86,46.86,0,0,0,42.36,37.09Z"/><path class="cls-1" d="M65.11,43.68a5.31,5.31,0,0,1-2.68-1.38,6.82,6.82,0,0,1-1.86-2.86A23.51,23.51,0,0,0,58.33,42L56.93,44q-1.32,1.94-2,2.9L48.2,56.81a1.41,1.41,0,0,1-1.54.79.68.68,0,0,1-.54-.88l.21-.48L56.91,40.87a47,47,0,0,0,4.3-8.71q.48-1.09,1.21-1,.54.06.54.73a2.22,2.22,0,0,1-.15.61q-1.94,4.14-1.42,4.17.27,0,1.06-.82a38.14,38.14,0,0,1,5.61-4.76q2.92-2,4.79-2a3.51,3.51,0,0,1,3,1.29,4.81,4.81,0,0,1,.57,3.74,12.12,12.12,0,0,1-4,7.49A8.25,8.25,0,0,1,65.11,43.68Zm-1.94-6.59A11.7,11.7,0,0,1,62,38.15l.06.06a5.59,5.59,0,0,0,1.39,2.56,3.79,3.79,0,0,0,2,1.35,6.63,6.63,0,0,0,5.78-1.66A10.33,10.33,0,0,0,74.76,34a4.26,4.26,0,0,0-.18-2.51,1.81,1.81,0,0,0-1.85-1q-1.18,0-4.19,2.16A46.86,46.86,0,0,0,63.17,37.09Z"/><path class="cls-1" d="M77.91,38.09a13.2,13.2,0,0,1,2-4.14,11.8,11.8,0,0,1,3.48-3.3,6.64,6.64,0,0,1,4.24-1.09,4.85,4.85,0,0,1,2.71,1.12,3.87,3.87,0,0,1,1.26,2.27l.18-.18,1.6-2.18q.76-1,1.51-.7.61.24.36,1a1.43,1.43,0,0,1-.24.45l-1.13,1.59-1,1.36-.74,1.07q-.45.67-.64,1t-.45.77a5.24,5.24,0,0,0-.36.74l-.23.64a3.51,3.51,0,0,0-.18.71q0,.33-.08.73a2.73,2.73,0,0,0,.35,1.92,1.69,1.69,0,0,0,1.5.74q4,0,14.7-10.86a1.66,1.66,0,0,1,.42-.32.86.86,0,0,1,.38-.11.53.53,0,0,1,.29.08.47.47,0,0,1,.18.21.78.78,0,0,1,.06.32.8.8,0,0,1-.11.38,1.63,1.63,0,0,1-.29.38q-2.78,2.84-4.63,4.61t-4,3.52a19,19,0,0,1-3.92,2.57,8,8,0,0,1-3.34.82,3.27,3.27,0,0,1-2.87-1.29,4.22,4.22,0,0,1-.67-3.1v-.09A19,19,0,0,1,84.79,43a6.42,6.42,0,0,1-3.34,1.21A3.13,3.13,0,0,1,78.3,42.5,5.39,5.39,0,0,1,77.91,38.09Zm3.66,4.48A5.9,5.9,0,0,0,85,40.78a52.47,52.47,0,0,0,5-5.72,4.88,4.88,0,0,0-.82-2.86,2.67,2.67,0,0,0-2-1.16,4.49,4.49,0,0,0-2.56.64,8.63,8.63,0,0,0-2.28,1.88A13.89,13.89,0,0,0,80.61,36a10.81,10.81,0,0,0-1,2.48,10,10,0,0,0-.27,2A2.15,2.15,0,0,0,79.86,42,2,2,0,0,0,81.57,42.56Z"/><path class="cls-1" d="M108.82,30.86a18.61,18.61,0,0,1,4.45,1.42q.79.39.88.79a1.11,1.11,0,0,1-.21.94,19.44,19.44,0,0,0-2.27,4.66,5.09,5.09,0,0,0-.26,3,1.3,1.3,0,0,0,1.32.94q2.15,0,5.72-2.66a83.59,83.59,0,0,0,9-8.14q.79-.79,1.24-.33t-.06,1.06l-.12.15q-2.42,2.45-3.77,3.77t-3.31,3.07a30.75,30.75,0,0,1-3.27,2.62,17,17,0,0,1-2.81,1.5,7.25,7.25,0,0,1-2.78.64,2.83,2.83,0,0,1-1.74-.53,2.8,2.8,0,0,1-1-1.53,6.36,6.36,0,0,1-.18-2.28,10.24,10.24,0,0,1,.77-2.93,17.84,17.84,0,0,1,1.85-3.37,25.26,25.26,0,0,0-4.57-1.24.5.5,0,0,1-.51-.57.87.87,0,0,1,.73-.88A1.73,1.73,0,0,1,108.82,30.86Z"/><path class="cls-1" d="M126.58,32.34a12.74,12.74,0,0,1,3.86-2.77,7.91,7.91,0,0,1,3.4-.77,3.12,3.12,0,0,1,2.3,1.32,3,3,0,0,1,.36,2.77q-.73,2.42-4,4.2A16.36,16.36,0,0,1,124.92,39h-.06a1.34,1.34,0,0,0-.06.42,2.85,2.85,0,0,0,1.32,2.42,5.15,5.15,0,0,0,3.07.94q3.24,0,8.18-2.83a50,50,0,0,0,10.27-8.15q.73-.79,1.18-.33t-.09,1a1.2,1.2,0,0,1-.15.18,54,54,0,0,1-10.5,8.65Q133,44.35,129,44.35A7,7,0,0,1,124.75,43a4.15,4.15,0,0,1-1.83-3.49Q122.92,36.09,126.58,32.34Zm1.48.85a11.77,11.77,0,0,0-2.9,4.36,15.21,15.21,0,0,0,6.58-1.69q2.8-1.51,3.28-3.33a1.8,1.8,0,0,0-.18-1.6,1.66,1.66,0,0,0-1.3-.7Q131.21,30,128.06,33.19Z"/><path class="cls-1" d="M160.16,15.43q.85-.94,1.57-.64t.3,1l-.21.36q-9,11.22-12.48,16.44t-3.71,7.67A2.12,2.12,0,0,0,146,42a1.8,1.8,0,0,0,1.41.59q2.21,0,5.7-2.6a86.31,86.31,0,0,0,9-8.2q.73-.79,1.18-.33t-.09,1a1.21,1.21,0,0,1-.15.18q-2.84,2.9-4.63,4.63t-4,3.52a19,19,0,0,1-3.93,2.62,7.9,7.9,0,0,1-3.33.82,3.48,3.48,0,0,1-2.72-1.15,3.56,3.56,0,0,1-.82-2.93q.39-3.15,3.54-7.84T160.16,15.43Z"/><path class="cls-1" d="M.29,15.29a13.2,13.2,0,0,1,2-4.14,11.8,11.8,0,0,1,3.48-3.3A6.64,6.64,0,0,1,10,6.76a4.85,4.85,0,0,1,2.71,1.12,3.87,3.87,0,0,1,1.26,2.27l.18-.18,1.6-2.18q.76-1,1.51-.7.61.24.36,1a1.43,1.43,0,0,1-.24.45l-1.13,1.59-1,1.36-.74,1.07q-.45.67-.64,1t-.45.77a5.24,5.24,0,0,0-.36.74l-.23.64a3.51,3.51,0,0,0-.18.71q0,.33-.08.73A2.73,2.73,0,0,0,12.92,19a1.69,1.69,0,0,0,1.5.74q4,0,14.7-10.86a1.66,1.66,0,0,1,.42-.32.86.86,0,0,1,.38-.11.53.53,0,0,1,.29.08.47.47,0,0,1,.18.21.78.78,0,0,1,.06.32.8.8,0,0,1-.11.38,1.63,1.63,0,0,1-.29.38q-2.78,2.84-4.63,4.61t-4,3.52a19,19,0,0,1-3.92,2.57,8,8,0,0,1-3.34.82,3.27,3.27,0,0,1-2.87-1.29,4.22,4.22,0,0,1-.67-3.1v-.09a19,19,0,0,1-3.46,3.27,6.42,6.42,0,0,1-3.34,1.21A3.13,3.13,0,0,1,.68,19.71,5.39,5.39,0,0,1,.29,15.29Zm3.66,4.48A5.9,5.9,0,0,0,7.41,18a52.46,52.46,0,0,0,5-5.72,4.88,4.88,0,0,0-.82-2.86,2.67,2.67,0,0,0-2-1.16A4.49,4.49,0,0,0,7,8.88,8.63,8.63,0,0,0,4.7,10.75,13.89,13.89,0,0,0,3,13.2a10.81,10.81,0,0,0-1,2.48,10,10,0,0,0-.27,2,2.15,2.15,0,0,0,.53,1.57A2,2,0,0,0,3.95,19.77Z"/><path class="cls-1" d="M40.67,6.94a2.74,2.74,0,0,1,2.25.91,3,3,0,0,1,.64,2.25,6.61,6.61,0,0,1-.92,2.77,9,9,0,0,0,5.2-.36A14.19,14.19,0,0,0,53.26,9q.67-.76,1.09-.36t0,1a.81.81,0,0,1-.15.21,14.91,14.91,0,0,1-6.26,4.1,9.77,9.77,0,0,1-6.05,0A21.34,21.34,0,0,1,36,19.25a11.76,11.76,0,0,1-5.93,1.94,2.94,2.94,0,0,1-1.54-.44,3.44,3.44,0,0,1-1.23-1.38,5.77,5.77,0,0,1-.61-2.27,9.82,9.82,0,0,1,.44-3.3A21.73,21.73,0,0,1,28.9,9.54q.54-1.09,1.33-1a.57.57,0,0,1,.57.67,1.51,1.51,0,0,1-.18.67,19.35,19.35,0,0,0-1.41,3.27,11.14,11.14,0,0,0-.56,2.68,6.84,6.84,0,0,0,.14,1.94A2.74,2.74,0,0,0,29.37,19a1.12,1.12,0,0,0,.83.41,10.69,10.69,0,0,0,5.1-1.6,16.19,16.19,0,0,0,5-4.45,6.19,6.19,0,0,1-1.94-1.54,2.77,2.77,0,0,1-.65-3.19A2.91,2.91,0,0,1,40.67,6.94Zm-1.18,3.9A5.56,5.56,0,0,0,41,12.2a6,6,0,0,0,.83-2,1.86,1.86,0,0,0-.15-1.38,1.15,1.15,0,0,0-1-.48,1.38,1.38,0,0,0-1.45.89A1.48,1.48,0,0,0,39.49,10.84Z"/><path class="cls-1" d="M48.81,15.29a13.2,13.2,0,0,1,2-4.14,11.8,11.8,0,0,1,3.48-3.3,6.64,6.64,0,0,1,4.24-1.09A4.85,4.85,0,0,1,61.2,7.88a3.87,3.87,0,0,1,1.26,2.27l.18-.18,1.6-2.18q.76-1,1.51-.7.61.24.36,1a1.43,1.43,0,0,1-.24.45l-1.13,1.59-1,1.36L63,12.57q-.45.67-.64,1t-.45.77a5.24,5.24,0,0,0-.36.74l-.23.64a3.52,3.52,0,0,0-.18.71q0,.33-.08.73A2.73,2.73,0,0,0,61.44,19a1.68,1.68,0,0,0,1.5.74q4,0,14.7-10.86a1.66,1.66,0,0,1,.42-.32.86.86,0,0,1,.38-.11.53.53,0,0,1,.29.08.47.47,0,0,1,.18.21.78.78,0,0,1,.06.32.8.8,0,0,1-.11.38,1.63,1.63,0,0,1-.29.38q-2.78,2.84-4.63,4.61T70,18A19,19,0,0,1,66,20.55a8,8,0,0,1-3.34.82,3.27,3.27,0,0,1-2.87-1.29,4.22,4.22,0,0,1-.67-3.1v-.09a19.05,19.05,0,0,1-3.46,3.27,6.42,6.42,0,0,1-3.34,1.21,3.13,3.13,0,0,1-3.15-1.66A5.39,5.39,0,0,1,48.81,15.29Zm3.66,4.48A5.9,5.9,0,0,0,55.93,18a52.46,52.46,0,0,0,5-5.72,4.88,4.88,0,0,0-.82-2.86,2.67,2.67,0,0,0-2-1.16,4.49,4.49,0,0,0-2.56.64,8.63,8.63,0,0,0-2.28,1.88,13.9,13.9,0,0,0-1.71,2.45,10.82,10.82,0,0,0-1,2.48,10,10,0,0,0-.27,2,2.15,2.15,0,0,0,.53,1.57A2,2,0,0,0,52.47,19.77Z"/><path class="cls-1" d="M72.59,21.07q-1,0-.54-1a14.1,14.1,0,0,1,1.3-2,13.21,13.21,0,0,0,1.78-2.9q.88-1.85,2.48-5.69.48-1.09,1.21-1,.54.06.51.76a2,2,0,0,1-.18.61q-1.75,4-1.45,4.05t1.09-.82a38.24,38.24,0,0,1,5.88-5,5.64,5.64,0,0,1,3.89-1A2.22,2.22,0,0,1,90.1,8a3,3,0,0,1,.57,1.86A4.4,4.4,0,0,1,90.1,12a22.49,22.49,0,0,1-1.91,2.78q-2.06,2.75-2.06,3.9a1.28,1.28,0,0,0,.35,1,1.16,1.16,0,0,0,.83.33q2.18,0,5.79-2.78a99.15,99.15,0,0,0,9-8.2q.64-.73,1.12-.36t.06,1a1,1,0,0,1-.24.27q-2.21,2.24-3.55,3.57t-3.28,3.06a35.37,35.37,0,0,1-3.3,2.66A17.7,17.7,0,0,1,90,20.75a7,7,0,0,1-2.78.68,2.72,2.72,0,0,1-2-.77,2.57,2.57,0,0,1-.77-1.89q0-1.88,2.42-4.66a20.2,20.2,0,0,0,1.68-2.5,4.88,4.88,0,0,0,.56-1.77A1.6,1.6,0,0,0,88.86,9a1.23,1.23,0,0,0-.79-.54A4.85,4.85,0,0,0,85,9.51a45.31,45.31,0,0,0-5.66,5.05q-1.33,1.3-2.5,2.56T75.11,19q-.56.65-1.06,1.16a4.14,4.14,0,0,1-.82.7A1.29,1.29,0,0,1,72.59,21.07Z"/><path class="cls-1" d="M105.68,4.16,108.41.74q.85-1,1.57-.67t.33.88l-.24.39-2.18,2.81h5.66q1.09.06,1,.67t-.82.82a1.46,1.46,0,0,1-.73.12q-3.69-.12-6.26-.12-6.32,8.44-6.44,11.83a1.94,1.94,0,0,0,.5,1.71,2.42,2.42,0,0,0,1.74.59q5.38,0,16.18-10.8.67-.76,1.09-.36t0,1a.81.81,0,0,1-.15.21q-11.37,11.59-17.27,11.59a4.15,4.15,0,0,1-3.07-1.13,3.47,3.47,0,0,1-1-2.95,15,15,0,0,1,1.5-4.55,51.18,51.18,0,0,1,4.7-7.15h-4.17a1.26,1.26,0,0,1-1-.3.43.43,0,0,1,0-.62,1.31,1.31,0,0,1,.91-.38Z"/></g></g></svg>