<?xml version="1.0" encoding="utf-8"?>
<!-- Generator: Adobe Illustrator 21.0.2, SVG Export Plug-In . SVG Version: 6.00 Build 0)  -->
<svg version="1.1" id="Layer_1" xmlns="http://www.w3.org/2000/svg" xmlns:xlink="http://www.w3.org/1999/xlink" x="0px" y="0px"
	 width="14.2px" height="15px" viewBox="0 0 14.2 15" style="enable-background:new 0 0 14.2 15;" xml:space="preserve">
<style type="text/css">
	.st0{fill:#555759;}
</style>
<title>logout</title>
<g id="Layer_2">
	<g id="Layer_1-2">
		<g>
			<path class="st0" d="M8.8,8H0.5C0.2,8,0,7.8,0,7.5S0.2,7,0.5,7h8.3c0.3,0,0.5,0.2,0.5,0.5S9.1,8,8.8,8z"/>
		</g>
		<g>
			<path class="st0" d="M6.1,10.7c-0.1,0-0.3,0-0.4-0.1c-0.2-0.2-0.2-0.5,0-0.7l2.4-2.4L5.8,5.1c-0.2-0.2-0.2-0.5,0-0.7
				s0.5-0.2,0.7,0l2.7,2.7c0.2,0.2,0.2,0.5,0,0.7l-2.7,2.7C6.4,10.7,6.2,10.7,6.1,10.7z"/>
		</g>
		<g>
			<path class="st0" d="M13.7,15H0.5C0.2,15,0,14.8,0,14.5v-4.2C0,10,0.2,9.8,0.5,9.8S1,10,1,10.2V14h12.2V1H1v3.8
				C1,5,0.8,5.2,0.5,5.2S0,5,0,4.8V0.5C0,0.2,0.2,0,0.5,0h13.2c0.3,0,0.5,0.2,0.5,0.5v14C14.2,14.8,14,15,13.7,15z"/>
		</g>
	</g>
</g>
</svg>
