<?xml version="1.0" encoding="utf-8"?>
<!-- Generator: Adobe Illustrator 21.0.2, SVG Export Plug-In . SVG Version: 6.00 Build 0)  -->
<svg version="1.1" id="Layer_1" xmlns="http://www.w3.org/2000/svg" xmlns:xlink="http://www.w3.org/1999/xlink" x="0px" y="0px"
	 width="19.8px" height="17.3px" viewBox="0 0 19.8 17.3" style="enable-background:new 0 0 19.8 17.3;" xml:space="preserve">
<style type="text/css">
	.st0{fill:#808080;}
</style>
<title>cart</title>
<g>
	<g>
		<path class="st0" d="M17.6,4.8H2.2c-0.6,0-1-0.4-1-1s0.4-1,1-1h15.4c0.6,0,1,0.4,1,1S18.2,4.8,17.6,4.8z"/>
	</g>
	<g>
		<path class="st0" d="M17.6,9.7H2.2c-0.6,0-1-0.4-1-1s0.4-1,1-1h15.4c0.6,0,1,0.4,1,1S18.2,9.7,17.6,9.7z"/>
	</g>
	<g>
		<path class="st0" d="M17.6,14.5H2.2c-0.6,0-1-0.4-1-1s0.4-1,1-1h15.4c0.6,0,1,0.4,1,1S18.2,14.5,17.6,14.5z"/>
	</g>
</g>
</svg>
