<?xml version="1.0" encoding="utf-8"?>
<!-- Generator: Adobe Illustrator 21.0.2, SVG Export Plug-In . SVG Version: 6.00 Build 0)  -->
<svg version="1.1" id="Layer_1" xmlns="http://www.w3.org/2000/svg" xmlns:xlink="http://www.w3.org/1999/xlink" x="0px" y="0px"
	 width="15px" height="3px" viewBox="0 0 15 3" style="enable-background:new 0 0 15 3;" xml:space="preserve">
<style type="text/css">
	.st0{fill:#808080;}
</style>
<g>
	<path class="st0" d="M13.5,3c-0.4,0-0.8-0.1-1.1-0.4C12.1,2.3,12,1.9,12,1.5s0.1-0.8,0.4-1.1C12.7,0.1,13.1,0,13.5,0
		s0.8,0.1,1.1,0.4C14.9,0.7,15,1.1,15,1.5s-0.1,0.8-0.4,1.1C14.3,2.9,13.9,3,13.5,3z"/>
	<path class="st0" d="M7.5,3C7.1,3,6.7,2.9,6.4,2.6C6.1,2.3,6,1.9,6,1.5s0.1-0.8,0.4-1.1C6.7,0.1,7.1,0,7.5,0s0.8,0.1,1.1,0.4
		C8.9,0.7,9,1.1,9,1.5S8.9,2.3,8.6,2.6C8.3,2.9,7.9,3,7.5,3z"/>
	<path class="st0" d="M1.5,3C1.1,3,0.7,2.9,0.4,2.6C0.1,2.3,0,1.9,0,1.5s0.1-0.8,0.4-1.1C0.7,0.1,1.1,0,1.5,0s0.8,0.1,1.1,0.4
		C2.9,0.7,3,1.1,3,1.5S2.9,2.3,2.6,2.6C2.3,2.9,1.9,3,1.5,3z"/>
</g>
</svg>
