<?xml version="1.0" encoding="utf-8"?>
<!-- Generator: Adobe Illustrator 21.0.2, SVG Export Plug-In . SVG Version: 6.00 Build 0)  -->
<svg version="1.1" id="Layer_1" xmlns="http://www.w3.org/2000/svg" xmlns:xlink="http://www.w3.org/1999/xlink" x="0px" y="0px"
	 width="19.2px" height="19px" viewBox="0 0 19.2 19" style="enable-background:new 0 0 19.2 19;" xml:space="preserve">
<style type="text/css">
	.st0{fill:#808080;}
</style>
<title>search</title>
<g id="Layer_2">
	<g id="Layer_1-2">
		<g>
			<path class="st0" d="M11.7,14.9c-4.1,0-7.5-3.3-7.5-7.5S7.6,0,11.7,0c4.1,0,7.5,3.3,7.5,7.5S15.8,14.9,11.7,14.9z M11.7,1
				C8.2,1,5.3,3.9,5.3,7.5c0,3.6,2.9,6.5,6.5,6.5s6.5-2.9,6.5-6.5C18.2,3.9,15.3,1,11.7,1z"/>
		</g>
		<g>
			<path class="st0" d="M0.5,19c-0.1,0-0.3,0-0.4-0.1c-0.2-0.2-0.2-0.5,0-0.7l6.2-6.2c0.2-0.2,0.5-0.2,0.7,0s0.2,0.5,0,0.7l-6.2,6.2
				C0.8,19,0.6,19,0.5,19z"/>
		</g>
	</g>
</g>
</svg>
