<?xml-stylesheet type="text/css" href="/css/config.php" ?>
<svg xmlns="http://www.w3.org/2000/svg" width="27.55" height="19" viewBox="0 0 27.55 19"><defs><style>.svg-1{fill:none;}.svg-1,.svg-2{stroke:#ff795f;stroke-miterlimit:10;}.svg-2{fill:#ffffff;}</style></defs><title>truck</title><g id="Layer_2" data-name="Layer 2"><g id="Layer_1-2" data-name="Layer 1"><path class="svg-1" d="M1.71.5H15.82A1.21,1.21,0,0,1,17,1.71V15.88a0,0,0,0,1,0,0H1.71A1.21,1.21,0,0,1,.5,14.67v-13A1.21,1.21,0,0,1,1.71.5Z"/><path class="svg-1" d="M17,15.88h8.8a1.21,1.21,0,0,0,1.21-1.21V8.56a1.21,1.21,0,0,0-.21-.68L24.33,4.12a1.21,1.21,0,0,0-1-.54H17Z"/><circle class="svg-2" cx="8.77" cy="15.88" r="2.62"/><circle class="svg-2" cx="19.66" cy="15.88" r="2.62"/></g></g></svg>