<svg xmlns="http://www.w3.org/2000/svg" width="29.47" height="24" viewBox="0 0 29.47 24"><defs><style>.cls-1{fill:#fff;}</style></defs><title>twitter</title><g id="Layer_2" data-name="Layer 2"><g id="Layer_1-2" data-name="Layer 1"><path class="cls-1" d="M26.4,6a3.16,3.16,0,0,1,.1.77,17.49,17.49,0,0,1-4.7,11.86Q17.09,24,9.22,24A16.83,16.83,0,0,1,0,21.31a10.2,10.2,0,0,0,1.44.1,12,12,0,0,0,7.49-2.59,6.28,6.28,0,0,1-3.55-1.25,5.83,5.83,0,0,1-2.11-3,7,7,0,0,0,1.15.1A7.54,7.54,0,0,0,6,14.5a6.33,6.33,0,0,1-3.5-2.11A5.73,5.73,0,0,1,1.15,8.54v-.1a5.21,5.21,0,0,0,2.78.77,5.68,5.68,0,0,1-2.78-5A5.87,5.87,0,0,1,2,1.15,16.41,16.41,0,0,0,14.5,7.49,5.22,5.22,0,0,1,14.3,6a5.82,5.82,0,0,1,1.78-4.27A5.82,5.82,0,0,1,20.35,0a5.68,5.68,0,0,1,4.42,1.92A11.1,11.1,0,0,0,28.61.48,5.72,5.72,0,0,1,26,3.84a11.65,11.65,0,0,0,3.46-1A13.12,13.12,0,0,1,26.4,6Z"/></g></g></svg>