<svg xmlns="http://www.w3.org/2000/svg" width="32" height="32" viewBox="0 0 32 32"><defs><style>.cls-1{fill:#ff795f;}.cls-2{fill:#ffddd7;}</style></defs><title>user</title><g id="Layer_2" data-name="Layer 2"><g id="Layer_1-2" data-name="Layer 1"><circle class="cls-1" cx="16" cy="16" r="16"/><path class="cls-2" d="M7.87,29.3a4.68,4.68,0,0,1,2.24-3.79A9.74,9.74,0,0,1,16,23.87a9.78,9.78,0,0,1,5.84,1.64,4.66,4.66,0,0,1,2.29,3.79q0,1.07-2.33,1.89A17.79,17.79,0,0,1,16,32a17.64,17.64,0,0,1-5.89-.81Q7.87,30.37,7.87,29.3Zm3.35-18.35A6.52,6.52,0,0,1,16,9a6.78,6.78,0,0,1,6.77,6.77A6.78,6.78,0,0,1,16,22.5a6.78,6.78,0,0,1-6.77-6.77A6.52,6.52,0,0,1,11.22,10.95Z"/></g></g></svg>