<?xml version="1.0" encoding="utf-8"?>
<!-- Generator: Adobe Illustrator 21.0.2, SVG Export Plug-In . SVG Version: 6.00 Build 0)  -->
<svg version="1.1" id="Layer_1" xmlns="http://www.w3.org/2000/svg" xmlns:xlink="http://www.w3.org/1999/xlink" x="0px" y="0px"
	 width="32px" height="32px" viewBox="0 0 32 32" style="enable-background:new 0 0 32 32;" xml:space="preserve">
<style type="text/css">
	.st0{fill:#FFFFFF;}
	.st1{fill:#FF795F;}
</style>
<title>user</title>
<g id="Layer_2">
	<g id="Layer_1-2">
		<circle class="st0" cx="16" cy="16" r="16"/>
		<path class="st1" d="M7.9,29.3c0.1-1.6,0.9-3,2.2-3.8c1.7-1.2,3.8-1.7,5.9-1.6c2.1-0.1,4.1,0.5,5.8,1.6c1.4,0.8,2.2,2.2,2.3,3.8
			c0,0.7-0.8,1.3-2.3,1.9C19.9,31.8,18,32.1,16,32c-2,0.1-4-0.2-5.9-0.8C8.6,30.6,7.9,30,7.9,29.3z M11.2,10.9c1.3-1.3,3-2,4.8-1.9
			c3.7,0,6.8,3,6.8,6.8c0,3.7-3,6.7-6.8,6.7c-3.7,0-6.8-3-6.8-6.8C9.2,13.9,9.9,12.2,11.2,10.9z"/>
	</g>
</g>
</svg>
