<?xml version="1.0" encoding="utf-8"?>
<!-- Generator: Adobe Illustrator 21.0.2, SVG Export Plug-In . SVG Version: 6.00 Build 0)  -->
<svg version="1.1" id="Layer_1" xmlns="http://www.w3.org/2000/svg" xmlns:xlink="http://www.w3.org/1999/xlink" x="0px" y="0px"
	 width="19px" height="13px" viewBox="0 0 19 13" style="enable-background:new 0 0 19 13;" xml:space="preserve">
<style type="text/css">
	.st0{fill:#FFFFFF;}
</style>
<title>view</title>
<g id="Layer_2">
	<g id="Layer_1-2">
		<g>
			<path class="st0" d="M9.5,13c-5.1,0-9.1-6-9.3-6.2L0,6.5l0.2-0.3C0.4,6,4.4,0,9.5,0c5.1,0,9.1,6,9.3,6.2L19,6.5l-0.2,0.3
				C18.6,7,14.6,13,9.5,13z M1.2,6.5C2.1,7.7,5.5,12,9.5,12c4,0,7.4-4.3,8.3-5.5C16.9,5.3,13.5,1,9.5,1C5.5,1,2.1,5.3,1.2,6.5z"/>
		</g>
		<g>
			<circle class="st0" cx="9.5" cy="6.5" r="3.9"/>
		</g>
	</g>
</g>
</svg>
