<?xml version="1.0" encoding="utf-8"?>
<!-- Generator: Adobe Illustrator 21.0.2, SVG Export Plug-In . SVG Version: 6.00 Build 0)  -->
<svg version="1.1" id="Layer_1" xmlns="http://www.w3.org/2000/svg" xmlns:xlink="http://www.w3.org/1999/xlink" x="0px" y="0px"
	 width="125px" height="44.2px" viewBox="0 0 125 44.2" style="enable-background:new 0 0 125 44.2;" xml:space="preserve">
<style type="text/css">
	.st0{fill-rule:evenodd;clip-rule:evenodd;fill:#F8E71C;}
	.st1{fill-rule:evenodd;clip-rule:evenodd;fill:#010101;}
</style>
<title>PayUBaloto</title>
<g id="XMLID_5047_">
	<path id="XMLID_5049_" class="st0" d="M17.9,41.9c-5.3,0-9.9-2-12.9-5.7c-3.1-3.7-4.2-8.7-3.2-14C3.8,11.2,14.5,2.3,25.5,2.3
		c5.3,0,9.9,2,12.9,5.7c3.1,3.7,4.2,8.7,3.2,14.1C39.5,33,28.9,41.9,17.9,41.9z"/>
	<path id="XMLID_4830_" class="st1" d="M25.5,2.1c11.1,0,18.4,8.9,16.3,20c-2.1,11.1-12.8,20-24,20c-11.1,0-18.5-8.9-16.3-20
		C3.6,11.1,14.4,2.1,25.5,2.1L25.5,2.1z M30.8,4.7c6.9,2.4,10.9,9.3,9.3,17.4c-1.8,9.5-10.5,17.2-19.9,18.2c-0.8,0-0.8-0.4-0.8-1.1
		c0-1.3,0.1-2.6,0.1-3.9c0-0.2-0.1-0.3-0.1-0.3c-1-0.1-1.9-0.3-2.9-0.6c-1-0.4-2-1-3.1-1.6C13,32.6,13,31.5,13,31.1
		c0.1-0.8,0.7-2.6,1.6-2.7c1.1-0.1,1.6,0.5,2.7,1.1c1.9,0.9,4.6,1.4,6.6,0.5c1-0.6,1.2-1.4,0.7-2.4c-0.8-1.6-4.5-3-6.2-3.8
		c-4-1.7-6.3-5.2-5.6-9.4c0.5-3.1,3.4-5.4,6.4-5.8c0-0.5,0-1,0-1.5c-3.7,1.1-6.5,3.2-9.1,5.7c-3.7,3.6-5.8,8.1-6,13.9
		c0.3,7.1,4,10.2,7.8,12.6c-6.6-2.6-10.4-9.3-8.9-17.2C5,12.4,14.1,4.5,23.9,3.8c0.4,0.2,0.4,0.3,0.6,0.8c-0.1,1.2-0.2,2.4-0.2,3.7
		c1.9,0.4,3.7,0.9,5.2,2.2c0,2.8-2.1,4-2.9,3.6c0-0.1-3.2-1-3.8-1.2c-0.8-0.1-1.6-0.1-2.4,0.3c-0.9,0.4-1.4,1.1-0.9,2.2
		c0.4,0.8,1,1.3,1.7,1.7c2,1.1,4,2.2,6.1,3.3c1.7,1,3,2.3,3.8,3.8c0.6,1.5,0.7,3.1,0.4,4.6c-0.4,1.3-0.9,2.4-1.6,3.1
		c-0.6,0.7-1.3,1.2-2,1.6c-1,0.5-2.1,1-3.1,1.2c0,0.7-0.1,1.3-0.1,1.9c0.1,0,0.2,0,0.3,0c2.3-0.7,4.3-2,6.3-3.5
		c2.5-2.2,4.9-4.6,6.2-7.6c0.8-1.7,1.5-3.6,1.8-5.8C39.7,13.6,37.5,7.8,30.8,4.7L30.8,4.7z"/>
	<g id="XMLID_5046_">
		<path id="XMLID_5057_" class="st1" d="M101.1,19l0,8.8c0.1,0.8,0.2,1.3,0.3,1.7c1.2,2.6,5.3,2.4,7.7,0.8l-1.1-2.2
			c-0.8,0.3-1.7,1-2.8,0.6c-1-0.3-0.9-1.5-0.9-2.6c0-2.4,0-4.7,0-7.1l6.6,0l5.3,12.2c0.1,0.5-1.1,2.6-1.3,3c-1.8,2.6-3.6,1.5-5,1.2
			l-0.7,2.6c2.8,1.1,5.8,0.7,7.4-1.1c1.5-1.6,2.3-3.8,3.2-6.3l5.1-14.1h-3.4L118,27.2c-0.4-0.4-3.1-7.4-3.7-8.5
			c-0.7-1.6-1.7-2.3-3.8-2.3c-2,0-4,0-6.1,0V12c-0.7,0.2-2.7,0.8-3.3,1v3.3l-2.6,0l0,2.6L101.1,19z"/>
		<path id="XMLID_5056_" class="st1" d="M63.9,16.3l0-3.3c0-1.2,1-2.9,2.4-3.6c1.3-0.6,3.8-0.6,5.1,0.2l-0.6,2.6
			c-3.7-0.8-3.7-0.1-3.7,4.1h4l-1,2.6l-3,0V31c-0.6,0.1-2.7,0.1-3.2,0V18.9l-1.6,0l-1-2.6L63.9,16.3z"/>
		<path id="XMLID_5055_" class="st1" d="M85.7,24.1c0.2,8.7,9.6,8.2,12.2,5.9c-0.1-0.4-0.7-2-1-2.2c-1.7,0.7-3.4,1.5-5.5,0.5
			c-3.3-1.6-3-7.7,0.3-9.2c1.3-0.6,3.1-0.5,4.4,0c0.5,0.2,0.8,0.5,1.2,0.6v-2.8c-1.9-0.8-3.3-1.3-5.8-0.7
			C87.8,17,85.6,20.4,85.7,24.1L85.7,24.1z"/>
		<path id="XMLID_4839_" class="st1" d="M51.3,22.1c0.2-2,1-3.6,3.1-3.6c2,0,3,1.6,3.1,3.7L51.3,22.1z M60.4,30l-0.9-2.2
			c-0.9,0.2-1.4,0.7-2.5,0.9c-2.9,0.5-5.5-0.9-5.6-4.2h9.4c0-3.3-0.6-7.1-4.3-8.3c-1.7-0.5-3.8-0.3-5.2,0.5
			c-5.1,3.1-4.9,14.7,4.1,14.6C57.2,31.4,59.4,30.9,60.4,30L60.4,30z"/>
		<path id="XMLID_5043_" class="st1" d="M74.5,22.2c0.2-2,1.1-3.7,3.1-3.7c2,0,3,1.7,3,3.7H74.5z M71.2,24.3c0.3,5.5,4.6,8,9.8,6.8
			c1.2-0.3,1.7-0.7,2.6-1l-0.9-2.3c-1.3,0.4-3,1.5-5.4,0.7c-1.6-0.6-2.7-1.9-2.7-4l9.5,0c0-4.3-1.3-8.5-6.3-8.6
			C72.9,15.9,71,20,71.2,24.3L71.2,24.3z"/>
	</g>
</g>
</svg>
