<?xml version="1.0" encoding="utf-8"?>
<!-- Generator: Adobe Illustrator 21.0.2, SVG Export Plug-In . SVG Version: 6.00 Build 0)  -->
<svg version="1.1" id="Layer_1" xmlns="http://www.w3.org/2000/svg" xmlns:xlink="http://www.w3.org/1999/xlink" x="0px" y="0px"
	 width="376.2px" height="44.2px" viewBox="0 0 376.2 44.2" style="enable-background:new 0 0 376.2 44.2;" xml:space="preserve">
<style type="text/css">
	.st0{fill:#2B3893;}
	.st1{fill:#F69410;}
	.st2{fill:#CB0200;}
	.st3{fill:#FD9800;}
	.st4{fill:#FFFFFF;}
	.st5{fill:url(#XMLID_2_);}
	.st6{fill-rule:evenodd;clip-rule:evenodd;fill:#FFFFFF;}
	.st7{fill-rule:evenodd;clip-rule:evenodd;fill:#00498E;}
	.st8{fill-rule:evenodd;clip-rule:evenodd;fill:#231F20;}
</style>
<title>PayUBaloto</title>
<g>
	<g id="g10" transform="matrix(1.25,0,0,-1.25,-74.19125,149.0417)">
		<g id="g4163" transform="matrix(0.6384875,0,0,0.6384875,24.348951,24.07854)">
			<g id="g12" transform="translate(143.448,67.609)">
				<path id="path14" class="st0" d="M-55.9,39.1l4.7,29.1h7.5l-4.7-29.1H-55.9"/>
			</g>
			<g id="g16" transform="translate(224.353,133.66)">
				<path id="path18" class="st0" d="M-102,1.5c-1.5,0.6-3.8,1.2-6.7,1.2c-7.4,0-12.7-4-12.7-9.6c0-4.2,3.7-6.5,6.6-7.9
					c2.9-1.4,3.9-2.3,3.9-3.6c0-2-2.3-2.8-4.5-2.8c-3,0-4.6,0.4-7.1,1.5l-1,0.5l-1.1-6.5c1.8-0.8,5-1.5,8.4-1.6
					c7.9,0,13,3.9,13.1,10c0,3.3-2,5.8-6.3,7.9c-2.6,1.4-4.2,2.2-4.2,3.6c0,1.2,1.4,2.5,4.3,2.5c2.5,0,4.2-0.5,5.6-1.1l0.7-0.3
					L-102,1.5"/>
			</g>
			<g id="g20" transform="translate(247.634,91.616)">
				<path id="path22" class="st0" d="M-115.3,25.4c0.6,1.7,3,8.1,3,8.1c0-0.1,0.6,1.7,1,2.8l0.5-2.5c0,0,1.4-7,1.7-8.4
					C-110.2,25.4-113.8,25.4-115.3,25.4z M-106,44.2h-5.8c-1.8,0-3.2-0.5-3.9-2.4l-11.2-26.7h7.9c0,0,1.3,3.6,1.6,4.4
					c0.9,0,8.5,0,9.6,0c0.2-1,0.9-4.4,0.9-4.4h7L-106,44.2"/>
			</g>
			<g id="g24" transform="translate(128.78,135.265)">
				<path id="path26" class="st0" d="M-47.5,0.5l-7.4-19.9l-0.8,4c-1.4,4.7-5.6,9.7-10.4,12.2l6.7-25.5l8,0l11.8,29.1H-47.5"/>
			</g>
			<g id="g28" transform="translate(95.781,135.311)">
				<path id="path30" class="st1" d="M-28.7,0.5h-12.1L-41-0.1c9.4-2.4,15.7-8.2,18.3-15.2l-2.6,13.4C-25.8-0.1-27.1,0.5-28.7,0.5"
					/>
			</g>
			<g id="g32" transform="translate(288.329,72.034)">
				<path id="path34" class="st0" d="M-138.4,36.6h0.4c0.3,0,0.3,0.1,0.3,0.3c0,0.2-0.1,0.3-0.3,0.3h-0.3V36.6z M-138.7,37.3h0.7
					c0.2,0,0.5,0,0.5-0.5c0-0.1,0-0.3-0.3-0.4v0c0.2,0,0.2-0.2,0.2-0.4c0-0.3,0-0.3,0.1-0.4h-0.3c-0.1,0.1,0,0.1-0.1,0.4
					c0,0.2,0,0.3-0.4,0.3h-0.3v-0.7h-0.3V37.3z M-138.1,35.1c0.8,0,1.3,0.6,1.3,1.4c0,0.8-0.6,1.4-1.3,1.4c-0.8,0-1.3-0.6-1.3-1.4
					C-139.5,35.7-138.9,35.1-138.1,35.1z M-138.1,38.1c0.9,0,1.7-0.7,1.7-1.7c0-0.9-0.7-1.7-1.7-1.7c-0.9,0-1.7,0.7-1.7,1.7
					C-139.8,37.4-139.1,38.1-138.1,38.1"/>
			</g>
		</g>
	</g>
	<g id="XMLID_4732_">
		<circle id="XMLID_4731_" class="st2" cx="117.4" cy="22.2" r="15.9"/>
		<path id="XMLID_4730_" class="st3" d="M124,23.7h-1.5l0.2-0.6h1.5C124,23.3,123.9,23.6,124,23.7z"/>
		<path id="XMLID_4729_" class="st3" d="M149.8,10.9c-3-3-7-4.7-11.3-4.7c-4,0-7.7,1.4-10.6,4l0,0l0,0l0.2,0.2c0.3,0.3,0.7,0.6,1,1
			l-2.4,0l-0.6,0.7l3.7,0c0.3,0.4,0.6,0.8,0.9,1.2l-5.4,0l-0.5,0.7l6.4,0l0,0c0.2,0.4,0.4,0.8,0.6,1.1l-7.6,0l-0.3,0.7l8.3,0
			c0.1,0.4,0.3,0.8,0.4,1.2l-9.2,0l-0.2,0.7l9.6,0c0.1,0.4,0.2,0.8,0.3,1.2l-10.2,0l-0.1,0.7l10.4,0c0.1,0.8,0.2,1.6,0.2,2.3
			c0,0.3,0,0.5,0,0.8l-2.3,0l0,0l0,0l-0.1,0.6l0,0.1l0.1,0l2.4,0c0,0.4-0.1,0.8-0.2,1.2l-2.5,0l-0.1,0l0,0.1l-0.1,0.6l0,0.1h0.1
			l2.4,0c-0.1,0.4-0.2,0.8-0.3,1.2l-9.3,0l-0.1,0l0,0.1c0,0.1,0.1,0.3,0.1,0.4l0.1,0.2l0,0l0,0l8.8,0c-0.1,0.4-0.3,0.7-0.5,1.1
			l0,0.1l-7.8,0l-0.1,0l0,0.1c0.1,0.1,0.1,0.3,0.2,0.4l0.1,0.2l0,0l0,0l7.1,0c-0.2,0.4-0.4,0.7-0.6,1.1l-0.1,0.1l-5.6,0l-0.1,0
			l0.1,0.1c0.1,0.2,0.2,0.3,0.3,0.5l0.1,0.2l0,0l0,0l4.7,0c-0.3,0.4-0.6,0.8-0.9,1.2l-2.7,0l-0.1,0l0.1,0.1c0.1,0.2,0.3,0.3,0.5,0.6
			l0,0l0,0h0l1.5,0c-0.2,0.2-0.4,0.4-0.6,0.6l-0.1,0.1l0,0l-0.1,0.1c2.9,2.6,6.7,4,10.6,4c4.3,0,8.3-1.7,11.3-4.7
			c3-3,4.7-7,4.7-11.3S152.9,13.9,149.8,10.9z"/>
		<path id="XMLID_4728_" class="st3" d="M149.7,33.4c-3,3-7,4.7-11.2,4.7c-3.9,0-7.6-1.4-10.5-3.9l0.1-0.1c0.2-0.2,0.5-0.5,0.7-0.7
			l0.1-0.1l-0.1,0l-1.6,0l0,0c-0.2-0.2-0.3-0.3-0.4-0.5l2.6,0h0l0,0c0.4-0.4,0.7-0.9,1-1.3l0.1-0.1l-0.1,0l-4.8,0l-0.1-0.1
			c-0.1-0.1-0.2-0.3-0.3-0.4l5.6,0h0l0,0l0.1-0.1c0.2-0.4,0.5-0.8,0.7-1.2l0-0.1l-0.1,0l-7.2,0l-0.1-0.2c-0.1-0.1-0.1-0.2-0.2-0.3
			l7.7,0h0l0,0l0-0.1c0.2-0.4,0.3-0.8,0.5-1.2l0-0.1h-0.1l-8.8,0l-0.1-0.2c0-0.1-0.1-0.2-0.1-0.3l9.2,0l0,0l0,0
			c0.1-0.4,0.3-0.8,0.3-1.3l0-0.1H133l-2.4,0l0.1-0.5l2.5,0l0.1,0l0,0c0.1-0.5,0.1-0.9,0.2-1.3l0-0.1l-0.1,0l-2.4,0l0.1-0.5l2.3,0
			h0.1l0-0.1c0-0.3,0-0.6,0-0.9c0-0.8-0.1-1.5-0.2-2.4l0-0.1l-10.4,0c0-0.1,0-0.4,0.1-0.5l10.2,0l0-0.1c-0.1-0.4-0.2-0.9-0.3-1.3
			l0,0l-9.6,0c0-0.1,0.1-0.4,0.2-0.5l9.2,0l0-0.1c-0.1-0.5-0.3-0.9-0.5-1.3l0,0l-8.2,0c0-0.1,0.2-0.4,0.2-0.5l7.7,0l0-0.1
			c-0.2-0.4-0.4-0.8-0.6-1.2l0-0.1l0,0l-6.2,0c0.1-0.1,0.3-0.4,0.3-0.5l5.6,0l-1-1.5l-3.5,0c0.1-0.1,0.2-0.2,0.2-0.3
			c0.1-0.1,0.2-0.2,0.2-0.2l2.6,0c0,0-0.8-0.9-1.2-1.2l-0.1-0.1c2.9-2.5,6.6-3.9,10.5-3.9c4.2,0,8.2,1.7,11.2,4.7
			c3,3,4.7,7,4.7,11.2C154.4,26.4,152.7,30.4,149.7,33.4z"/>
		<path id="XMLID_4727_" class="st4" d="M128.8,26.4l1.1-5.7h1.3l0.1,0.6c0.2-0.3,0.7-0.6,1.5-0.6l-0.4,1.5c-0.4,0-1.1-0.1-1.6,1.6
			l-0.5,2.6H128.8z"/>
		<path id="XMLID_4723_" class="st4" d="M122.1,19.2h1.6l-0.3,1.5h0.8l-0.3,1.2h-0.8l-0.4,2.3c-0.1,0.4,0,0.8,0.9,0.7l-0.1,1.2
			c-0.3,0.2-0.8,0.3-1.2,0.3c-0.4,0-1.5-0.2-1.2-1.8L122.1,19.2z"/>
		<path id="XMLID_4722_" class="st4" d="M128.8,23.9c0.2-0.9,0.6-3.2-2.1-3.2c-2.5,0-2.8,2.5-2.9,2.8c-0.1,0.4-0.1,2.9,2.6,2.9
			c0.7,0,1.6-0.1,2-0.3l0.2-1.2c-0.2,0.1-1.1,0.1-1.8,0.1c-0.6,0-1.6,0-1.4-1.3H128.8z"/>
		<path id="XMLID_4721_" class="st2" d="M125.5,22.8h1.9c0.1-0.6-0.1-1-0.7-1C126.1,21.8,125.7,22.1,125.5,22.8z"/>
		<path id="XMLID_4720_" class="st4" d="M120.6,22l0.4-1.2c-0.7-0.3-1.3-0.2-1.5-0.2c-0.2,0-2.1,0-2.4,1.4c-0.2,1.1,0.2,1.5,0.5,1.7
			c0.6,0.3,0.9,0.5,1.3,0.7c0.4,0.2,0.3,0.9-0.2,0.9c-0.2,0-1.3,0.1-2.1-0.1l-0.2,1.2c0.7,0.2,1.3,0.2,1.8,0.2
			c0.4,0,2.2,0.1,2.5-1.6c0.1-0.8-0.2-1.2-0.5-1.4c-0.3-0.2-0.8-0.5-1.1-0.6c-0.3-0.1-0.6-0.7,0-0.8C119.4,21.9,120.2,21.9,120.6,22
			z"/>
		<polygon id="XMLID_4719_" class="st4" points="110.5,26.4 111.8,19.5 109.3,19.5 107.4,23.7 107.1,19.5 104.6,19.5 103.3,26.4 
			104.8,26.4 105.8,21.4 106.2,26.4 107.7,26.4 109.8,21.6 108.9,26.4 		"/>
		<path id="XMLID_4718_" class="st4" d="M112.2,20.9l-0.2,1.2c0.4,0,1.4-0.2,1.9-0.2c0.5,0,1.1-0.1,1,0.8c-0.4,0-3.2-0.4-3.6,2
			c-0.2,1.2,0.8,1.8,1.6,1.7c0.8,0,1-0.1,1.3-0.3l0.2,0.3h1.5l0.6-3.1c0.2-0.8,0.4-2.6-2.2-2.6C113.8,20.7,113.3,20.7,112.2,20.9z"
			/>
		<path id="XMLID_4717_" class="st2" d="M114.6,23.9c-0.3,0-0.8-0.2-1.3,0.1c-0.5,0.3-0.6,0.9-0.1,1.1c0.5,0.2,1.2-0.1,1.3-0.7
			L114.6,23.9z"/>
		<path id="XMLID_4716_" class="st4" d="M142.7,26.4l1.1-5.7h1.3l0.1,0.6c0.2-0.3,0.7-0.6,1.5-0.6l-0.4,1.5c-0.4,0-1.1-0.1-1.6,1.6
			l-0.5,2.6H142.7z"/>
		<path id="XMLID_4714_" class="st4" d="M137.4,21.1c-0.4-0.2-0.7-0.3-1.2-0.3c-0.5,0-1.7,0.5-1.9,1.9c-0.3,1.7,0.9,2.5,2.5,1.9
			l0.5,1.4c-0.5,0.2-1,0.4-1.9,0.4c-1.6,0-3.4-1.4-2.6-4.3c0.6-2.1,2.4-2.9,3.5-2.9c1.3,0,1.7,0.5,2.1,0.9L137.4,21.1z"/>
		<path id="XMLID_4713_" class="st4" d="M150.7,21.4c-0.3-0.2-0.5-0.7-1.2-0.7c-0.9,0-2.2-0.2-2.9,2.4c-0.5,1.7,0.5,3.3,1.6,3.3
			c0.5,0,1-0.2,1.4-0.5l0.2,0.5h1.7l1.4-7.2h-1.6L150.7,21.4z"/>
		<path id="XMLID_4711_" class="st3" d="M150.1,23.7c0.2-0.5,0.1-1.2-0.1-1.4c-0.5-0.6-1.6-0.1-1.9,1.1c-0.2,0.8,0.3,1.4,0.8,1.4
			C149.5,24.8,149.8,24.4,150.1,23.7L150.1,23.7z"/>
		<path id="XMLID_4695_" class="st4" d="M138.5,20.9l-0.2,1.2c0.4,0,1.4-0.2,1.9-0.2c0.5,0,1.1-0.1,1,0.8c-0.4,0-3.2-0.4-3.6,2
			c-0.2,1.2,0.8,1.8,1.6,1.7c0.8,0,1-0.1,1.3-0.3l0.2,0.3h1.5l0.6-3.1c0.2-0.8,0.4-2.6-2.2-2.6C140.1,20.7,139.5,20.7,138.5,20.9z"
			/>
		<path id="XMLID_4581_" class="st3" d="M140.9,23.9c-0.3,0-0.8-0.2-1.3,0.1c-0.5,0.3-0.6,0.9-0.1,1.1c0.5,0.2,1.2-0.1,1.3-0.7
			L140.9,23.9z"/>
	</g>
	<g id="XMLID_4754_">
		
			<radialGradient id="XMLID_2_" cx="185.5501" cy="54.9986" r="37.4008" gradientTransform="matrix(1 0 0 -1 0 64.11)" gradientUnits="userSpaceOnUse">
			<stop  offset="0" style="stop-color:#9CD4F5"/>
			<stop  offset="7.110000e-02" style="stop-color:#97D2F4"/>
			<stop  offset="0.1575" style="stop-color:#88CDF2"/>
			<stop  offset="0.2516" style="stop-color:#70C5EE"/>
			<stop  offset="0.3514" style="stop-color:#4EBAE9"/>
			<stop  offset="0.4546" style="stop-color:#23ACE2"/>
			<stop  offset="0.5" style="stop-color:#0DA5DF"/>
			<stop  offset="1" style="stop-color:#2E77BB"/>
		</radialGradient>
		<path id="XMLID_4753_" class="st5" d="M218.4,2.1h-39.9v40h39.9V28.9c0.2-0.2,0.2-0.5,0.2-0.9c0-0.4-0.1-0.7-0.2-0.9"/>
		<path id="XMLID_4771_" class="st4" d="M182.1,19.4l-0.8-1.9l-0.8,1.9 M199,18.7c-0.2,0.1-0.3,0.1-0.6,0.1h-1.4v-1h1.4
			c0.2,0,0.4,0,0.5,0.1c0.1,0.1,0.2,0.2,0.2,0.4C199.2,18.4,199.1,18.6,199,18.7z M208.7,19.4l-0.8-1.9l-0.8,1.9H208.7z M190.6,21.5
			h-1.1l0-3.7l-1.6,3.7h-1l-1.6-3.7v3.7h-2.3l-0.4-1h-2.3l-0.4,1h-1.2l2-4.7h1.7l1.9,4.4v-4.4h1.8l1.5,3.2l1.3-3.2h1.9L190.6,21.5
			L190.6,21.5z M195.2,21.5h-3.7v-4.7h3.7v1h-2.6v0.8h2.6v1h-2.6v0.9h2.6V21.5z M200.5,18c0,0.7-0.5,1.1-0.8,1.2
			c0.2,0.1,0.5,0.3,0.6,0.4c0.2,0.2,0.2,0.4,0.2,0.9v0.9h-1.1l0-0.6c0-0.3,0-0.7-0.2-0.9c-0.2-0.2-0.4-0.2-0.8-0.2h-1.2v1.7H196
			v-4.7h2.6c0.6,0,1,0,1.4,0.2C200.3,17.2,200.5,17.5,200.5,18z M202.3,21.5h-1.1v-4.7h1.1V21.5z M215.5,21.5h-1.6l-2.1-3.5v3.5
			h-2.3l-0.4-1h-2.3l-0.4,1H205c-0.5,0-1.2-0.1-1.6-0.5c-0.4-0.4-0.6-0.9-0.6-1.8c0-0.7,0.1-1.3,0.6-1.8c0.4-0.4,0.9-0.5,1.7-0.5
			h1.1v1h-1.1c-0.4,0-0.6,0.1-0.9,0.3c-0.2,0.2-0.3,0.6-0.3,1.1c0,0.5,0.1,0.9,0.3,1.1c0.2,0.2,0.5,0.2,0.8,0.2h0.5l1.6-3.7h1.7
			l1.9,4.4v-4.4h1.7l2,3.3v-3.3h1.1V21.5L215.5,21.5z M178.5,22.4h1.9l0.4-1h1l0.4,1h3.8v-0.8l0.3,0.8h2l0.3-0.8v0.8h9.4l0-1.7h0.2
			c0.1,0,0.2,0,0.2,0.2v1.5h4.8V22c0.4,0.2,1,0.4,1.8,0.4h2l0.4-1h1l0.4,1h3.9v-1l0.6,1h3.1v-6.5h-3.1v0.8l-0.4-0.8h-3.2v0.8
			l-0.4-0.8h-4.3c-0.7,0-1.4,0.1-1.9,0.4v-0.4h-3v0.4c-0.3-0.3-0.8-0.4-1.3-0.4h-10.9l-0.7,1.7l-0.7-1.7h-3.4v0.8l-0.4-0.8h-2.9
			l-1.4,3.1L178.5,22.4L178.5,22.4z"/>
		<path id="XMLID_4760_" class="st4" d="M218.4,25.8h-2c-0.2,0-0.3,0-0.5,0.1c-0.1,0.1-0.2,0.2-0.2,0.3c0,0.2,0.1,0.3,0.2,0.3
			c0.1,0,0.2,0.1,0.4,0.1l0.6,0c0.6,0,1,0.1,1.3,0.4c0,0,0.1,0.1,0.1,0.1 M218.4,28.9c-0.3,0.4-0.8,0.6-1.5,0.6h-2.2v-1h2.2
			c0.2,0,0.4,0,0.5-0.1c0.1-0.1,0.1-0.2,0.1-0.3c0-0.1-0.1-0.2-0.1-0.3c-0.1-0.1-0.2-0.1-0.4-0.1c-1.1,0-2.4,0-2.4-1.5
			c0-0.7,0.4-1.4,1.6-1.4h2.2v-0.9h-2.1c-0.6,0-1.1,0.1-1.4,0.4v-0.4h-3.1c-0.5,0-1.1,0.1-1.3,0.4v-0.4H205v0.4
			c-0.4-0.3-1.2-0.4-1.5-0.4h-3.6v0.4c-0.3-0.3-1.1-0.4-1.6-0.4h-4l-0.9,1l-0.9-1h-6v6.5h5.9l1-1l0.9,1l3.7,0v-1.5h0.4
			c0.5,0,1.1,0,1.6-0.2v1.8h3v-1.7h0.1c0.2,0,0.2,0,0.2,0.2v1.5h9.2c0.6,0,1.2-0.1,1.5-0.4v0.4h2.9c0.6,0,1.2-0.1,1.6-0.3V28.9
			L218.4,28.9z M213.9,27.1c0.2,0.2,0.3,0.5,0.3,1c0,1-0.6,1.5-1.8,1.5h-2.2v-1h2.2c0.2,0,0.4,0,0.5-0.1c0.1-0.1,0.1-0.2,0.1-0.3
			c0-0.1-0.1-0.2-0.1-0.3c-0.1-0.1-0.2-0.1-0.4-0.1c-1,0-2.4,0-2.4-1.5c0-0.7,0.4-1.4,1.6-1.4h2.2v1H212c-0.2,0-0.3,0-0.4,0.1
			c-0.1,0.1-0.2,0.2-0.2,0.3c0,0.2,0.1,0.3,0.2,0.3c0.1,0,0.2,0.1,0.4,0.1l0.6,0C213.2,26.7,213.7,26.8,213.9,27.1z M203.8,26.8
			c-0.1,0.1-0.3,0.1-0.6,0.1h-1.4v-1.1h1.4c0.2,0,0.4,0,0.5,0.1c0.1,0.1,0.2,0.2,0.2,0.4C204,26.5,203.9,26.7,203.8,26.8z
			 M204.5,27.3c0.2,0.1,0.5,0.3,0.5,0.4c0.2,0.2,0.2,0.4,0.2,0.9v0.9h-1.1v-0.6c0-0.3,0-0.7-0.2-0.9c-0.2-0.2-0.4-0.2-0.8-0.2h-1.2
			v1.7h-1.1v-4.7h2.6c0.6,0,1,0,1.3,0.2c0.4,0.2,0.6,0.5,0.6,1C205.3,26.8,204.8,27.2,204.5,27.3z M205.9,24.8h3.7v1H207v0.9h2.6v1
			H207v0.9l2.6,0v1h-3.7V24.8z M198.3,27h-1.4v-1.2h1.5c0.4,0,0.7,0.2,0.7,0.6C199,26.8,198.8,27,198.3,27z M195.8,29.1l-1.7-1.9
			l1.7-1.8V29.1z M191.3,28.5h-2.8v-0.9h2.5v-1h-2.5v-0.9h2.8l1.2,1.4L191.3,28.5z M200.2,26.4c0,1.3-1,1.6-2,1.6h-1.4v1.6h-2.2
			l-1.4-1.6l-1.4,1.6h-4.4v-4.7h4.5l1.4,1.5l1.4-1.5h3.6C199.2,24.8,200.2,25.1,200.2,26.4z"/>
	</g>
	<g id="XMLID_4826_">
		<g id="XMLID_5065_">
			<g id="XMLID_5071_">
				<circle id="XMLID_4807_" class="st6" cx="258.6" cy="22.1" r="15.7"/>
			</g>
			<path id="XMLID_5066_" class="st7" d="M248.9,22.1c0-4.3,2.9-8,6.8-9.3v18.5C251.8,30.2,248.9,26.5,248.9,22.1z M261.4,12.8
				c4,1.2,6.9,4.9,6.9,9.3c0,4.4-2.9,8.1-6.9,9.3V12.8z M242.6,22.1c0-8.8,7.2-16,16-16h18.8c8.8,0,16,7.2,16,16c0,8.8-7.2,16-16,16
				h-18.7C249.8,38.1,242.6,31,242.6,22.1z M243.2,22.1c0-8.5,6.9-15.4,15.4-15.4c8.5,0,15.4,6.9,15.4,15.4s-6.9,15.4-15.4,15.4
				C250.1,37.5,243.2,30.6,243.2,22.1z"/>
		</g>
		<path id="XMLID_4827_" class="st8" d="M368.8,22.8l-0.1,0v-0.3l2.4-0.4h0.2l-0.2,0.7l-0.6,2l-0.6,2l-0.4,1.6l-0.4,1.6l-0.4,1.6
			c-0.1,0.2-0.1,0.4-0.1,0.5c0,0.1,0.1,0.2,0.2,0.2c0.3,0,0.6-0.4,0.9-0.7c0.1-0.1,0.2-0.2,0.3-0.3l0.3,0.2l-0.1,0.2
			c-0.5,0.6-1.3,1.6-2,1.6c-0.4,0-0.7-0.3-0.7-0.7c0-0.2,0.1-0.6,0.2-0.9l0.1-0.2l0.4-1.4l0.4-1.6l0.4-1.6l0.6-2l0.1-0.3
			c0.2-0.8,0.3-1.1,0.3-1.3c0-0.2-0.1-0.3-0.3-0.4c-0.1,0-0.2,0-0.3,0C369,22.8,368.9,22.8,368.8,22.8z M372.9,23.9v-0.5h0.4
			c0.2,0,0.4,0,0.4,0.2c0,0.3-0.2,0.3-0.4,0.3H372.9z M373.9,24.8l0.1,0.1h-0.3l-0.1-0.1l-0.4-0.6h-0.3v0.6v0.1h-0.3v-0.1v-1.6h0.6
			c0.4,0,0.6,0.1,0.6,0.5c0,0.3-0.2,0.4-0.4,0.5L373.9,24.8z M374.1,22.8c0.4,0.3,0.6,0.7,0.6,1.2c0,0.3-0.1,0.5-0.2,0.8
			c-0.3,0.4-0.7,0.7-1.3,0.7c-0.5,0-1-0.3-1.3-0.7c-0.1-0.2-0.2-0.5-0.2-0.8c0-0.5,0.3-0.9,0.6-1.2c0.2-0.2,0.6-0.3,0.9-0.3
			C373.5,22.6,373.8,22.7,374.1,22.8z M374.2,24.8c0.1-0.2,0.2-0.5,0.2-0.7c0-0.6-0.4-1.1-1-1.2c-0.1,0-0.2,0-0.2,0
			c-0.1,0-0.2,0-0.2,0c-0.6,0.1-1,0.6-1,1.2c0,0.3,0.1,0.5,0.2,0.8c0.2,0.3,0.6,0.5,1,0.5C373.6,25.3,373.9,25.1,374.2,24.8z
			 M362.5,26.7c0.6-0.4,1.2-0.7,1.8-0.7c0.6,0,0.9,0.3,1.1,0.7c0,0.1,0.1,0.2,0.1,0.3l0.1-0.3l0.2-0.5l1.2-0.2l-0.2,0.7l-0.4,1.6
			l-0.4,1.6l-0.4,1.5c-0.1,0.2-0.1,0.4-0.1,0.6c0,0.1,0.1,0.2,0.2,0.2c0.3,0,0.6-0.5,0.9-0.8l0.2-0.2l0.2,0.2
			c-0.5,0.7-1.2,1.6-2.1,1.6c-0.4,0-0.6-0.2-0.6-0.6c0-0.2,0.1-0.6,0.2-0.9c0.1-0.2,0.1-0.5,0.2-0.5c-0.2,0.2-0.3,0.3-0.5,0.5
			c-0.6,0.8-1.5,1.6-2.5,1.6c-0.9,0-1.3-0.8-1.4-1.6c0-0.1,0-0.1,0-0.2c0-0.5,0.1-0.9,0.2-1.4c0.2-0.5,0.4-1.1,0.8-1.6
			C361.4,27.7,361.9,27.1,362.5,26.7z M365,26.7c-0.1-0.2-0.4-0.4-0.7-0.4c-0.3,0-0.6,0.1-0.9,0.4c-0.5,0.3-0.9,0.9-1.3,1.6
			c-0.3,0.5-0.5,1-0.7,1.6c-0.1,0.4-0.2,0.8-0.2,1.1c0,0.1,0,0.3,0.1,0.4c0.1,0.4,0.4,0.7,0.8,0.7c0.3,0,0.8-0.2,1.3-0.7
			c0.4-0.4,0.9-0.9,1.2-1.6c0.2-0.5,0.4-1,0.5-1.6c0-0.2,0.1-0.5,0.1-0.7C365.2,27.3,365.1,27,365,26.7z M354.3,26.8
			c-0.1-0.1-0.3-0.1-0.4-0.1c-0.2,0-0.3,0-0.5,0.1v-0.3l2.4-0.4h0.2l-0.2,0.7l-0.5,1.6l-0.3,1c0.2-0.3,0.5-0.6,0.7-1
			c0.4-0.5,0.8-1.1,1.3-1.6c0.5-0.4,1-0.7,1.5-0.7c0.5,0,0.8,0.3,0.8,0.7c0,0.1,0,0.1,0,0.2c0,0.4,0,0.6-0.3,1.4
			c-0.1,0.4-0.3,0.9-0.5,1.6c-0.2,0.5-0.4,1.1-0.5,1.6c-0.1,0.3-0.1,0.4-0.1,0.5c0,0.1,0.1,0.2,0.2,0.2c0.2,0,0.6-0.4,0.8-0.7
			c0.1-0.1,0.2-0.2,0.2-0.3l0.2,0.1l-0.1,0.2c-0.4,0.7-1.3,1.6-2,1.6c-0.4,0-0.6-0.3-0.6-0.6c0-0.2,0.1-0.4,0.2-0.9
			c0.1-0.4,0.2-0.9,0.4-1.6l0.1-0.2l0.4-1.3c0.2-0.6,0.2-0.8,0.2-1c0-0.2-0.1-0.4-0.4-0.4c-0.4,0-1.1,0.6-1.7,1.4
			c-0.4,0.5-0.7,1-1,1.6c-0.3,0.5-0.5,1-0.7,1.5l0,0.1l-0.4,1.4h-1.1l0.4-1.4l0.5-1.6l0.4-1.5c0.2-0.8,0.3-1.1,0.3-1.3
			C354.5,26.9,354.4,26.8,354.3,26.8z M352.1,26.7c0.4,0.4,0.6,1,0.6,1.6l0,0.1c0,0.5-0.1,1-0.3,1.4c-0.2,0.6-0.5,1.1-0.9,1.6
			c-0.8,0.9-1.9,1.6-3.1,1.6c-1.1,0-2-0.6-2.3-1.6c-0.1-0.2-0.1-0.5-0.1-0.8c0-0.3,0-0.5,0.1-0.8c0.1-0.5,0.3-1.1,0.6-1.6
			c0.4-0.6,0.9-1.2,1.5-1.6c0.7-0.4,1.4-0.7,2.2-0.7C351.1,26,351.7,26.3,352.1,26.7z M351.4,28.3c0-0.2,0-0.3,0-0.5
			c0-0.4-0.1-0.8-0.4-1.1c-0.2-0.2-0.5-0.4-0.9-0.4c-0.3,0-0.7,0.1-1,0.4c-0.5,0.3-0.9,0.9-1.2,1.6c-0.3,0.5-0.4,1-0.6,1.6
			c-0.1,0.5-0.2,0.9-0.2,1.3c0,0.1,0,0.2,0,0.3c0.1,0.7,0.5,1.2,1.3,1.2c0.6,0,1.2-0.5,1.7-1.2c0.3-0.4,0.6-1,0.8-1.6
			C351.2,29.4,351.4,28.8,351.4,28.3z M345.2,26.7l-0.4,1.6l-0.4,1.6l-0.4,1.6c-0.1,0.2-0.1,0.4-0.1,0.5c0,0.1,0.1,0.2,0.2,0.2
			c0.3,0,0.6-0.4,0.9-0.7c0.1-0.1,0.2-0.2,0.3-0.3l0.3,0.2c0,0-0.1,0.1-0.1,0.2c-0.5,0.6-1.3,1.6-2,1.6c-0.4,0-0.7-0.3-0.7-0.7
			c0-0.2,0.1-0.6,0.2-0.9l0.1-0.2l0.4-1.4l0.4-1.5c0.2-0.8,0.3-1.1,0.3-1.3c0-0.2-0.1-0.3-0.2-0.3c-0.1-0.1-0.3-0.1-0.4-0.1
			c-0.2,0-0.3,0-0.5,0.1v-0.3l2.4-0.4h0.2L345.2,26.7z M341.6,24.8l-0.4,1.4h1.2l-0.1,0.5h-1.2l-0.5,1.6l-0.5,1.6l-0.3,1.1
			c0,0.1-0.1,0.3-0.1,0.5c-0.1,0.2-0.1,0.4-0.1,0.6c0,0.1,0,0.3,0.2,0.3c0.3,0,0.8-0.5,1-0.9c0.1-0.1,0.2-0.2,0.2-0.3l0.3,0.2
			l-0.1,0.2c-0.5,0.6-1.3,1.6-2,1.6c-0.4,0-0.7-0.3-0.7-0.7c0-0.2,0.1-0.6,0.1-0.9l0.1-0.2l0.4-1.4l0.4-1.6l0.4-1.6l-1.1,0l0.1-0.3
			c1-0.3,1.6-0.7,2.2-1.6c0.1-0.2,0.3-0.4,0.4-0.6h0.3L341.6,24.8z M333.4,26.7c0.6-0.4,1.2-0.7,1.8-0.7c0.6,0,0.9,0.3,1.1,0.7
			c0,0.1,0.1,0.2,0.1,0.3l0.1-0.3l0.2-0.5l1.2-0.2l-0.2,0.7l-0.4,1.6l-0.4,1.6l-0.4,1.5c-0.1,0.2-0.1,0.4-0.1,0.6
			c0,0.1,0.1,0.2,0.2,0.2c0.3,0,0.6-0.5,0.9-0.8l0.2-0.2l0.2,0.2c-0.5,0.7-1.2,1.6-2.1,1.6c-0.4,0-0.6-0.2-0.6-0.6
			c0-0.2,0.1-0.6,0.2-0.9c0.1-0.2,0.1-0.5,0.2-0.5c-0.2,0.2-0.3,0.3-0.5,0.5c-0.6,0.8-1.5,1.6-2.5,1.6c-0.9,0-1.3-0.8-1.4-1.6
			c0-0.1,0-0.1,0-0.2c0-0.5,0.1-0.9,0.2-1.4c0.2-0.5,0.4-1.1,0.8-1.6C332.4,27.7,332.9,27.1,333.4,26.7z M335.9,26.7
			c-0.1-0.2-0.4-0.4-0.7-0.4c-0.3,0-0.6,0.1-0.9,0.4c-0.5,0.3-0.9,0.9-1.3,1.6c-0.3,0.5-0.5,1-0.7,1.6c-0.1,0.4-0.2,0.8-0.2,1.1
			c0,0.1,0,0.3,0.1,0.4c0.1,0.4,0.4,0.7,0.8,0.7c0.3,0,0.8-0.2,1.3-0.7c0.4-0.4,0.9-0.9,1.2-1.6c0.2-0.5,0.4-1,0.5-1.6
			c0-0.2,0.1-0.5,0.1-0.7C336.1,27.3,336.1,27,335.9,26.7z M325.4,26.8c-0.1-0.1-0.3-0.1-0.4-0.1c-0.2,0-0.3,0-0.5,0.1v-0.3l2.4-0.4
			h0.2l-0.2,0.7l-0.5,1.6l-0.3,1c0.2-0.3,0.5-0.6,0.7-1c0.4-0.5,0.8-1.1,1.3-1.6c0.5-0.4,1-0.7,1.5-0.7c0.5,0,0.8,0.3,0.8,0.7
			c0,0.1,0,0.1,0,0.2c0,0.4,0,0.6-0.3,1.4c-0.1,0.4-0.3,0.9-0.5,1.6c-0.2,0.5-0.4,1.1-0.5,1.6c-0.1,0.3-0.1,0.4-0.1,0.5
			c0,0.1,0.1,0.2,0.2,0.2c0.2,0,0.6-0.4,0.8-0.7c0.1-0.1,0.2-0.2,0.2-0.3l0.2,0.1l-0.1,0.2c-0.4,0.7-1.3,1.6-2,1.6
			c-0.4,0-0.6-0.3-0.6-0.6c0-0.2,0.1-0.4,0.2-0.9c0.1-0.4,0.2-0.9,0.4-1.6l0.1-0.2c0.2-0.6,0.3-1,0.4-1.3c0.2-0.6,0.2-0.8,0.2-1
			c0-0.2-0.1-0.4-0.4-0.4c-0.4,0-1.1,0.6-1.7,1.4c-0.4,0.5-0.7,1-1,1.6c-0.3,0.5-0.5,1-0.7,1.5l0,0.1l-0.4,1.4H324l0.4-1.4l0.5-1.6
			l0.4-1.5c0.2-0.8,0.3-1.1,0.3-1.3C325.6,26.9,325.5,26.8,325.4,26.8z M319.8,26.8c-0.1-0.1-0.3-0.1-0.4-0.1c-0.2,0-0.3,0-0.5,0.1
			v-0.3l2.4-0.4h0.2l-0.2,0.7l-0.5,1.6l-0.4,1.3c0.2-0.3,0.5-0.7,0.8-1.3c0.4-0.5,0.8-1.1,1.3-1.6c0.4-0.4,0.9-0.7,1.2-0.7
			c0.4,0,0.5,0.2,0.5,0.6c0,0,0,0.1,0,0.1c0,0.4-0.3,1.1-0.8,1.1c-0.7,0-0.2-0.7-0.8-0.7c-0.1,0-0.6,0.4-1.1,1.1
			c-0.3,0.4-0.7,1-1,1.6c-0.3,0.5-0.5,1-0.7,1.6c-0.1,0.2-0.1,0.4-0.2,0.5l-0.2,0.8h-1.1l0.4-1.4l0.4-1.6l0.4-1.5
			c0.2-0.8,0.3-1.1,0.3-1.3C320,26.9,319.9,26.8,319.8,26.8z M318.5,26.7c0,0.1,0.1,0.2,0.1,0.4c0,0.4-0.2,0.8-0.5,1.2
			c-0.7,0.8-2,1.3-3.4,1.6c-0.3,0.1-0.6,0.1-0.9,0.1c0,0.2-0.1,0.4-0.1,0.6c0,0.3,0.1,0.6,0.2,0.8c0.3,0.5,0.8,0.8,1.4,0.8
			c0.7,0,1.3-0.3,1.9-0.8c0.2-0.1,0.4-0.3,0.6-0.4l0.2,0.2l-0.2,0.2c-0.9,0.8-2,1.6-3.2,1.6c-1.3,0-1.9-0.9-2.1-1.6
			c-0.1-0.3-0.1-0.5-0.1-0.7c0-0.3,0-0.6,0.1-0.9c0.1-0.5,0.4-1.1,0.7-1.6c0.4-0.6,0.9-1.2,1.5-1.6c0.7-0.4,1.4-0.7,2.2-0.7
			C317.6,26,318.3,26.2,318.5,26.7z M316.9,28.3c0.4-0.4,0.6-0.9,0.6-1.2c0-0.1,0-0.3-0.1-0.4c-0.1-0.2-0.4-0.4-0.7-0.4
			c-0.4,0-0.8,0.1-1.1,0.4c-0.5,0.4-1,0.9-1.3,1.6c-0.2,0.4-0.4,0.9-0.5,1.3C315.4,29.4,316.4,28.9,316.9,28.3z M311.9,24.8
			l-0.4,1.4h1.2l-0.1,0.5h-1.2l-0.5,1.6l-0.5,1.6l-0.3,1.1c0,0.1-0.1,0.3-0.1,0.5c-0.1,0.2-0.1,0.4-0.1,0.6c0,0.1,0,0.3,0.2,0.3
			c0.3,0,0.8-0.5,1-0.9c0.1-0.1,0.2-0.2,0.2-0.3l0.3,0.2l-0.1,0.2c-0.5,0.6-1.3,1.6-2,1.6c-0.4,0-0.7-0.3-0.7-0.7
			c0-0.2,0.1-0.6,0.1-0.9l0.1-0.2l0.4-1.4l0.4-1.6l0.4-1.6l-1.1,0l0.1-0.3c1-0.3,1.6-0.7,2.2-1.6c0.1-0.2,0.3-0.4,0.4-0.6h0.3
			L311.9,24.8z M302.8,26.8c-0.1-0.1-0.3-0.1-0.4-0.1c-0.2,0-0.3,0-0.5,0.1v-0.3l2.4-0.4h0.2l-0.2,0.7l-0.5,1.6l-0.3,1
			c0.2-0.3,0.5-0.6,0.7-1c0.4-0.5,0.8-1.1,1.3-1.6c0.5-0.4,1-0.7,1.5-0.7c0.5,0,0.8,0.3,0.8,0.7c0,0.1,0,0.1,0,0.2
			c0,0.4,0,0.6-0.3,1.4c-0.1,0.4-0.3,0.9-0.5,1.6c-0.2,0.5-0.4,1.1-0.5,1.6c-0.1,0.3-0.1,0.4-0.1,0.5c0,0.1,0.1,0.2,0.2,0.2
			c0.2,0,0.6-0.4,0.8-0.7c0.1-0.1,0.2-0.2,0.2-0.3l0.2,0.1l-0.1,0.2c-0.4,0.7-1.3,1.6-2,1.6c-0.4,0-0.6-0.3-0.6-0.6
			c0-0.2,0.1-0.4,0.2-0.9c0.1-0.4,0.2-0.9,0.4-1.6l0.1-0.2c0.2-0.6,0.3-1,0.4-1.3c0.2-0.6,0.2-0.8,0.2-1c0-0.2-0.1-0.4-0.4-0.4
			c-0.4,0-1.1,0.6-1.7,1.4c-0.4,0.5-0.7,1-1,1.6c-0.3,0.5-0.5,1-0.7,1.5l0,0.1l-0.4,1.4h-1.1l0.4-1.4l0.5-1.6l0.4-1.5
			c0.2-0.8,0.3-1.1,0.3-1.3C303,26.9,302.9,26.8,302.8,26.8z M302.9,22.8L302.9,22.8l-0.3,0.1c-0.9,0-1.2,0.8-1.3,1.4l-0.1,0.5
			l-0.6,2l-0.4,1.6l-0.4,1.6l-0.2,0.8c0,0.2-0.1,0.5-0.2,0.8c0,0.2-0.1,0.3-0.1,0.4c0,0.6,0.6,0.7,1.2,0.7l-0.1,0.3h-4l0.1-0.3
			c1,0,1.2-0.1,1.5-1.1c0.1-0.2,0.1-0.3,0.2-0.5l0.3-1l0.5-1.6l0.5-1.6l0.6-1.9c0.1-0.5,0.3-0.9,0.3-1.3c0-0.5-0.4-0.6-1.2-0.6
			l0-0.1l0.1-0.2h4L302.9,22.8z M363.5,14.3c0.6-0.6,1.2-1.1,2.2-1.1c0.8,0,1.4,0.4,1.7,1.1c0.1,0.3,0.2,0.6,0.2,0.9
			c0,0.5-0.1,0.9-0.2,1.4c-0.2,0.7-0.6,1.4-1.1,2c-0.8,0.9-1.9,1.6-3.1,1.6c-0.9,0-1.6-0.3-2.3-0.8l0.2-0.7l0.6-2l0.7-2.3l0.8-2.6
			l0.1-0.5c0.1-0.4,0.2-0.6,0.2-0.8c0-0.4-0.4-0.4-0.6-0.4c-0.2,0-0.3,0-0.5,0.1V9.7l2.4-0.4h0.2l-0.5,1.8l-0.9,3.1l-0.1,0.2
			L363.5,14.3z M365.9,14.3c-0.2-0.2-0.4-0.4-0.8-0.4c-0.4,0-0.8,0.1-1.2,0.4c-0.6,0.4-1,1.1-1.2,1.7l-0.2,0.6l-0.6,2l-0.2,0.8
			c0.4,0.2,0.8,0.4,1.3,0.4c0.9,0,1.6-0.5,2.1-1.2c0.4-0.6,0.7-1.3,0.9-2c0.1-0.4,0.2-0.8,0.2-1.2C366.3,15,366.2,14.6,365.9,14.3z
			 M354.2,14.3c-0.2,0.2-0.4,0.5-0.6,0.7l-0.2-0.2c0.1-0.2,0.2-0.3,0.4-0.5c0.4-0.5,1.1-1.1,1.7-1.1c0.4,0,0.6,0.2,0.6,0.6
			c0,0.1,0,0.2-0.1,0.4c-0.1,0.3-0.2,1-0.6,2.3l-0.1,0.3c-0.2,0.7-0.4,1.2-0.5,1.7c0,0.1,0,0.3,0,0.4c0,0.2,0.1,0.3,0.3,0.3
			c0.3,0,0.7-0.2,1.1-0.7c0.5-0.5,1-1.1,1.5-2c0.4-0.7,0.7-1.5,1-2.3l0.1-0.2l0.2-0.7l1.2-0.2l-0.3,1.1l-0.7,2.3l-0.3,1
			c-0.1,0.2-0.2,0.6-0.3,0.9c-0.1,0.2-0.1,0.4-0.1,0.5c0,0.1,0,0.2,0.2,0.2c0.3,0,0.5-0.2,0.9-0.7l0.2-0.3l0.2,0.2l-0.1,0.1
			c-0.4,0.6-1.2,1.6-1.9,1.6c-0.4,0-0.6-0.2-0.6-0.6c0-0.3,0-0.6,0.1-1c0.1-0.5,0.3-1.1,0.6-2l0-0.1l0,0.1c-0.3,0.5-0.8,1.3-1.3,2
			c-0.7,0.8-1.5,1.6-2.3,1.6c-0.5,0-0.8-0.4-0.8-0.9c0-0.2,0-0.4,0.1-0.7c0.1-0.4,0.2-0.8,0.3-1.2l0.2-0.8c0.5-1.6,0.6-2,0.6-2.3
			c0-0.1,0-0.2-0.2-0.2C354.5,14,354.4,14.1,354.2,14.3z M353.3,11.1l-0.9,3.1l-0.7,2.3l-0.6,2c-0.1,0.2-0.1,0.4-0.1,0.5
			c0,0.1,0.1,0.2,0.2,0.2c0.3,0,0.6-0.4,0.9-0.7c0.1-0.1,0.2-0.2,0.2-0.3l0.3,0.2l-0.1,0.1c-0.4,0.6-1.3,1.6-2.1,1.6
			c-0.4,0-0.7-0.3-0.7-0.7c0-0.2,0.1-0.6,0.2-0.9l0-0.2l0.5-1.8l0.7-2.3l0.7-2.6l0.1-0.5c0.1-0.4,0.2-0.6,0.2-0.8
			c0-0.4-0.4-0.4-0.6-0.4c-0.2,0-0.3,0-0.5,0.1V9.7l2.4-0.4h0.2L353.3,11.1z M349.7,11.1l-0.4,1.7H349v-0.6c0-0.4-0.1-0.8-0.2-1.1
			c-0.5-1-1.6-1.1-2-1.1c-1.1,0-2,0.4-2.7,1.1c-0.9,0.8-1.5,1.9-1.9,3.1c-0.2,0.7-0.3,1.4-0.3,2c0,0.1,0,0.2,0,0.3
			c0.1,0.8,0.3,1.4,0.8,2c0.5,0.6,1.3,1,2.3,1c1.1,0,1.9-0.4,2.6-1c0.3-0.3,0.5-0.6,0.8-0.9h0.4c-0.2,0.3-0.4,0.6-0.7,0.9
			c-0.9,1.1-2,1.6-3.6,1.6c-1.5,0-2.7-0.6-3.5-1.6c-0.4-0.5-0.6-1.2-0.7-1.9c0-0.2,0-0.3,0-0.5c0-0.6,0.1-1.3,0.3-1.9
			c0.4-1.2,1.1-2.3,2.1-3.1c1.1-1,2.6-1.6,4.1-1.6c0.6,0,1,0.1,1.6,0.4c0.2,0.1,0.4,0.2,0.6,0.2c0.3,0,0.6-0.3,0.8-0.5h0.3
			L349.7,11.1z M336.4,14.3l-0.2,1.2h-0.3c0-0.4-0.1-0.9-0.3-1.2c-0.2-0.4-0.6-0.7-1.2-0.7c-0.5,0-0.9,0.3-1,0.7c0,0.1,0,0.1,0,0.2
			c0,0.7,0.9,1.3,1.5,2.2c0.4,0.5,0.6,1,0.6,1.6c0,0.1,0,0.3,0,0.4c-0.2,1-1.3,1.6-2.2,1.6c-1,0-1.3-0.4-1.6-0.4
			c-0.2,0-0.4,0.1-0.5,0.4h-0.3l0.3-1.6l0.2-0.9h0.3c0,0.3,0,0.6,0.1,0.9c0.2,0.7,0.6,1.2,1.6,1.2c0.6,0,1.2-0.4,1.2-1.1
			c0-0.1,0-0.1,0-0.2c-0.1-0.7-0.7-1.3-1.2-2c-0.4-0.5-0.8-1.1-0.8-1.7c0-0.2,0-0.4,0.1-0.6c0.3-0.7,1-1.1,1.7-1.1
			c0.6,0,1.2,0.4,1.5,0.4c0.2,0,0.4-0.1,0.6-0.4h0.3L336.4,14.3z M327.3,14.3c0-0.4-0.4-0.4-0.6-0.4c-0.2,0-0.3,0-0.5,0.1v-0.3
			l2.4-0.4h0.2l-0.3,1.1l-0.7,2.3l0,0.1l0.1-0.1c0.3-0.6,1-1.6,1.7-2.3c0.6-0.6,1.1-1.1,1.6-1.1c0.4,0,0.5,0.2,0.5,0.6
			c0,0.1,0,0.3-0.1,0.5c-0.1,0.4-0.3,0.8-0.7,0.8c-0.7,0-0.2-0.7-0.8-0.7c-0.2,0-1.1,1-1.9,2.3c-0.4,0.6-0.7,1.3-0.9,2
			c-0.1,0.2-0.1,0.4-0.2,0.6l-0.2,0.8h-1.1l0.4-1.4l0.6-2l0.3-1.1C327.1,14.8,327.3,14.5,327.3,14.3z M324.7,14.3
			c0-0.5-0.3-0.7-0.8-0.7c-0.6,0-1.1,0.3-1.5,0.7c-0.7,0.6-1.1,1.6-1.3,2.3l0,0.2c0.3,0,0.6-0.1,0.9-0.2
			C323.9,16.1,324.7,15,324.7,14.3z M325.8,14.3c0,1.1-1,1.8-2.3,2.3c-0.8,0.3-1.6,0.5-2.5,0.5c0,0.2-0.1,0.4-0.1,0.6
			c0,0.3,0.1,0.6,0.2,0.8c0.3,0.5,0.8,0.8,1.5,0.8c0.7,0,1.3-0.3,2-0.8c0.2-0.1,0.3-0.3,0.5-0.4l0.2,0.2l-0.2,0.2
			c-0.9,0.8-2,1.6-3.2,1.6c-1.3,0-1.9-0.9-2.1-1.6c-0.1-0.3-0.1-0.5-0.1-0.7c0-0.4,0.1-0.9,0.2-1.3c0.3-0.9,0.9-1.7,1.6-2.3
			c0.8-0.7,1.7-1.1,2.7-1.1C324.9,13.2,325.8,13.4,325.8,14.3z M314,14.3c0-0.4-0.4-0.4-0.6-0.4c-0.2,0-0.3,0-0.5,0.1v-0.3l2.4-0.4
			h0.2l-0.3,1.1l-0.7,2.2c0.4-0.6,1-1.5,1.7-2.2c0.6-0.6,1.2-1.1,1.9-1.1c0.5,0,0.9,0.4,0.9,0.9l0,0.2c0,0.5-0.1,0.8-0.6,2.3
			l-0.1,0.4c-0.2,0.5-0.3,1.1-0.5,1.5c-0.1,0.3-0.1,0.5-0.1,0.5c0,0.1,0.1,0.2,0.2,0.2c0.2,0,0.6-0.4,0.9-0.7
			c0.1-0.1,0.2-0.2,0.2-0.3l0.2,0.1l-0.1,0.1c-0.4,0.7-1.3,1.6-2,1.6c-0.4,0-0.6-0.3-0.6-0.6c0-0.2,0.1-0.5,0.2-0.9
			c0.1-0.4,0.3-1,0.5-1.8l0.1-0.2c0.4-1.5,0.5-1.9,0.5-2.2c0-0.1,0-0.1,0-0.2c0-0.1-0.1-0.2-0.3-0.2c-0.1,0-0.3,0.1-0.5,0.2
			c-0.6,0.4-1.4,1.4-2,2.3c-0.4,0.7-0.7,1.3-0.9,1.9l0,0.1l-0.4,1.4h-1.1l0.4-1.4l0.6-2l0.3-1.1C313.8,14.8,313.9,14.5,314,14.3z
			 M312.4,11.1c-0.1,0.3-0.4,0.6-0.7,0.6c-0.3,0-0.6-0.2-0.7-0.6c0-0.1,0-0.1,0-0.2c0-0.4,0.3-0.8,0.8-0.8c0.4,0,0.8,0.3,0.8,0.8
			C312.4,11,312.4,11.1,312.4,11.1z M311.5,14.3l-0.7,2.3l-0.5,2c-0.1,0.2-0.1,0.4-0.1,0.5c0,0.1,0.1,0.2,0.2,0.2
			c0.3,0,0.6-0.4,0.9-0.7c0.1-0.1,0.2-0.2,0.2-0.3l0.3,0.2l-0.1,0.1c-0.4,0.6-1.3,1.6-2.1,1.6c-0.4,0-0.7-0.3-0.7-0.7
			c0-0.2,0.1-0.6,0.2-0.9l0-0.2l0.5-1.8l0.3-1.1c0.2-0.7,0.3-1,0.3-1.2c0-0.4-0.4-0.4-0.6-0.4c-0.2,0-0.3,0-0.5,0.1v-0.3l2.4-0.4
			h0.2L311.5,14.3z M307.2,11.1c0.8,0.9,1,2,1,3l0,0.2c0,0.7-0.2,1.5-0.6,2.3c-0.4,0.7-0.9,1.4-1.6,2c-1.1,0.8-2.6,1.4-4.7,1.4H297
			l0.1-0.3c1,0,1.2-0.1,1.5-1.1c0-0.1,0.1-0.3,0.2-0.5l0.4-1.5l0.7-2.3l0.7-2.3c0.1-0.3,0.2-0.6,0.2-0.9c0-0.2,0-0.3,0-0.5
			c0-0.5-0.4-0.6-1.2-0.6l0.1-0.3h3.6C305.3,9.8,306.5,10.4,307.2,11.1z M306.7,14.3c0-0.2,0-0.3,0-0.5c0-1.2-0.3-2.1-0.9-2.6
			c-0.6-0.5-1.4-0.8-2.6-0.8c-0.3,0-0.6,0-0.9,0l-0.2,0.8l-0.9,3.1l-0.7,2.3l-0.3,1.2c0,0.1-0.1,0.5-0.2,0.8c0,0.2-0.1,0.4-0.1,0.5
			c0,0.5,0.6,0.5,1.2,0.5c1.4,0,2.6-0.3,3.4-0.9c0.7-0.5,1.3-1.2,1.6-2C306.4,15.9,306.6,15.1,306.7,14.3z M344.5,23.8
			c0,0.4,0.3,0.8,0.8,0.8c0.4,0,0.8-0.3,0.8-0.8c0-0.4-0.3-0.8-0.8-0.8C344.8,23.1,344.5,23.4,344.5,23.8z"/>
	</g>
</g>
</svg>
